<?xml version="1.0" encoding="utf-8"?>
<!-- Generator: Adobe Illustrator 17.1.0, SVG Export Plug-In . SVG Version: 6.00 Build 0)  -->
<!DOCTYPE svg PUBLIC "-//W3C//DTD SVG 1.1//EN" "http://www.w3.org/Graphics/SVG/1.1/DTD/svg11.dtd">
<svg version="1.1" id="Layer_2" xmlns="http://www.w3.org/2000/svg" xmlns:xlink="http://www.w3.org/1999/xlink" x="0px" y="0px"
	 viewBox="0 0 114.6 114" enable-background="new 0 0 114.6 114" xml:space="preserve">
<g>
	<circle fill="#FFFFFF" cx="58" cy="55.4" r="49.5"/>
	<path fill="#002E5F" d="M58,105.3c-27.5,0-49.9-22.4-49.9-49.9S30.5,5.5,58,5.5s49.9,22.4,49.9,49.9S85.5,105.3,58,105.3z M58,6.3
		c-27.1,0-49.1,22-49.1,49.1c0,27.1,22,49.1,49.1,49.1s49.1-22,49.1-49.1C107.1,28.3,85,6.3,58,6.3z"/>
</g>
<path fill="#002E5F" d="M58,89.4c-18.7,0-34-15.3-34-34c0-18.7,15.3-34,34-34s34,15.3,34,34C92,74.2,76.7,89.4,58,89.4z M58,22.4
	c-18.2,0-33,14.8-33,33s14.8,33,33,33s33-14.8,33-33S76.2,22.4,58,22.4z"/>
<path fill="#002E5F" d="M58,103.6C31.4,103.6,9.7,82,9.7,55.4C9.7,28.8,31.4,7.2,58,7.2c26.6,0,48.2,21.6,48.2,48.2
	C106.2,82,84.5,103.6,58,103.6z M58,7.5C31.5,7.5,10,29,10,55.4s21.5,47.9,47.9,47.9c26.4,0,47.9-21.5,47.9-47.9S84.4,7.5,58,7.5z"
	/>
<g>
	<path fill="#002E5F" d="M14.5,62.2c-0.6-0.1-1.2-0.1-1.9-0.2c0-0.2-0.1-0.6-0.3-1.1c-0.2-0.7-0.3-1.2-0.3-1.5
		c-0.1-0.8,0-1.6,0.3-2.2c0.3-0.7,0.7-1.2,1.3-1.6c0.6-0.4,1.2-0.7,2-0.7c0.7-0.1,1.4,0,2.1,0.4s1.2,0.8,1.6,1.4
		c0.4,0.6,0.7,1.3,0.7,2.1c0,0.3,0,0.8,0,1.4c0,0.5,0,0.8,0,1c-0.5,0.1-1.1,0.2-1.8,0.4c-0.1,0-0.1,0-0.1-0.2c0-0.1,0-0.1,0.1-0.1
		c0.5-0.2,0.9-0.5,1.1-1c0.3-0.5,0.4-1,0.3-1.5c-0.1-0.9-0.5-1.5-1.3-2.1c-0.8-0.5-1.7-0.7-2.7-0.6c-1,0.1-1.8,0.5-2.5,1.1
		c-0.6,0.6-0.9,1.4-0.8,2.2c0.1,1.3,0.8,2.2,2.1,2.6c0.1,0,0.1,0.1,0.1,0.1C14.6,62.2,14.6,62.2,14.5,62.2z"/>
	<path fill="#002E5F" d="M18.4,70.3c-1.1,0.3-2.1,0.2-3-0.3c-0.9-0.5-1.5-1.4-1.8-2.5c-0.3-1.2-0.2-2.2,0.3-3.1
		c0.5-0.9,1.3-1.5,2.5-1.8c1.1-0.3,2.2-0.2,3.1,0.3s1.6,1.4,1.9,2.5c0.3,1.2,0.2,2.2-0.3,3.1C20.4,69.4,19.6,70,18.4,70.3z
		 M18.1,69.1c1-0.3,1.8-0.8,2.4-1.4c0.5-0.7,0.7-1.4,0.5-2.3c-0.2-0.8-0.7-1.4-1.5-1.7c-0.8-0.3-1.7-0.3-2.8-0.1
		c-1,0.3-1.8,0.8-2.3,1.4c-0.5,0.7-0.6,1.4-0.4,2.3c0.2,0.8,0.7,1.4,1.5,1.7S17.1,69.4,18.1,69.1z"/>
	<path fill="#002E5F" d="M19.9,81.4c-0.1,0-0.1,0-0.2,0c-0.1-0.2-0.2-0.5-0.4-0.8c-0.1-0.3-0.3-0.6-0.4-0.8
		c-0.1-0.2-0.2-0.4-0.4-0.7c-0.2-0.3-0.3-0.5-0.4-0.8c0-0.1,0-0.1,0.1-0.2c0.1,0,0.1,0,0.2,0c0.2,0.4,0.4,0.6,0.6,0.7
		c0.2,0.1,0.4,0.1,0.6-0.1l0.1,0l4.6-2.7l-7.1,0.7c-0.1,0-0.1,0-0.1-0.1c0-0.1,0-0.1,0-0.2l4.5-5.2l-4.7,2c-0.1,0-0.1,0-0.2,0.1
		c-0.2,0.1-0.3,0.3-0.4,0.5c0,0.2,0.1,0.5,0.2,0.9c0,0,0,0.1-0.1,0.1c-0.1,0-0.1,0-0.2,0c-0.1-0.2-0.2-0.4-0.3-0.7
		c-0.1-0.3-0.2-0.5-0.3-0.6c-0.1-0.2-0.2-0.4-0.4-0.6c-0.2-0.3-0.3-0.5-0.4-0.6c0,0,0-0.1,0.1-0.1c0.1,0,0.1,0,0.2,0
		c0.3,0.4,0.5,0.6,0.7,0.7c0.2,0.1,0.4,0.1,0.7,0l4.9-1.9c0.1,0,0.1-0.1,0.2-0.1c0.2-0.1,0.3-0.3,0.3-0.5c0-0.2-0.1-0.5-0.2-0.9
		c0,0,0-0.1,0.1-0.1c0,0,0.1,0,0.1,0s0.1,0,0.1,0c0.1,0.1,0.1,0.3,0.2,0.5c0.1,0.2,0.1,0.3,0.2,0.4c0.1,0.1,0.2,0.3,0.3,0.5
		c0.1,0.2,0.2,0.4,0.3,0.5l-4.3,4.9l6.5-0.7c0.1,0.1,0.1,0.3,0.2,0.5c0.1,0.2,0.1,0.4,0.2,0.5c0.1,0.1,0.2,0.3,0.3,0.5
		c0.1,0.2,0.2,0.4,0.3,0.5c0,0.1,0,0.1-0.1,0.2c-0.1,0-0.1,0-0.2,0c-0.2-0.4-0.4-0.6-0.6-0.7c-0.2-0.1-0.4-0.1-0.6,0.1l-0.1,0
		l-4.5,2.6c-0.2,0.1-0.4,0.2-0.4,0.4c-0.1,0.1-0.1,0.2-0.1,0.4c0,0.2,0.1,0.4,0.2,0.7C20.1,81.3,20,81.4,19.9,81.4z"/>
	<path fill="#002E5F" d="M27.4,89.9c-0.1,0.1-0.1,0.1-0.2,0c-0.2-0.2-0.4-0.4-0.6-0.7c-0.2-0.3-0.4-0.5-0.5-0.6
		c-0.1-0.2-0.3-0.4-0.6-0.6c-0.2-0.2-0.4-0.4-0.6-0.6c0,0,0-0.1,0-0.2c0.1-0.1,0.1-0.1,0.2,0c0.3,0.3,0.6,0.4,0.8,0.5
		c0.2,0,0.4,0,0.6-0.2l0.1-0.1l3.8-3.7l-6.7,2.5c-0.1,0-0.1,0-0.2-0.1c-0.1-0.1-0.1-0.1,0-0.2l3.1-6.1l-4,3.1
		c-0.1,0-0.1,0.1-0.1,0.1c-0.2,0.2-0.3,0.3-0.2,0.5c0,0.2,0.2,0.5,0.4,0.8c0,0,0,0.1-0.1,0.2c-0.1,0.1-0.1,0.1-0.2,0
		c-0.1-0.1-0.3-0.3-0.5-0.6c-0.2-0.2-0.3-0.4-0.5-0.5c-0.1-0.1-0.3-0.3-0.5-0.5c-0.2-0.2-0.4-0.4-0.5-0.5c0,0,0-0.1,0.1-0.2
		c0.1-0.1,0.1-0.1,0.2,0c0.4,0.3,0.6,0.5,0.8,0.5c0.2,0.1,0.4,0,0.7-0.2l4.2-3c0.1,0,0.1-0.1,0.1-0.1c0.2-0.2,0.2-0.3,0.2-0.5
		c0-0.2-0.2-0.5-0.4-0.8c0,0,0-0.1,0.1-0.2c0,0,0.1,0,0.1,0c0,0,0.1,0,0.1,0c0.1,0.1,0.2,0.3,0.4,0.5c0.1,0.2,0.2,0.3,0.3,0.4
		c0.1,0.1,0.2,0.2,0.4,0.4c0.2,0.2,0.3,0.3,0.4,0.4l-3,5.8l6.2-2.3c0.1,0.1,0.2,0.3,0.4,0.4c0.1,0.2,0.2,0.3,0.3,0.4
		c0.1,0.1,0.2,0.2,0.4,0.4c0.2,0.2,0.3,0.3,0.4,0.4c0,0,0,0.1,0,0.2c-0.1,0.1-0.1,0.1-0.2,0c-0.3-0.3-0.6-0.4-0.8-0.5
		c-0.2,0-0.4,0-0.6,0.2l-0.1,0.1l-3.7,3.7c-0.2,0.2-0.3,0.3-0.3,0.4s0,0.3,0.1,0.4c0.1,0.2,0.2,0.4,0.4,0.6
		C27.5,89.8,27.5,89.9,27.4,89.9z"/>
	<path fill="#002E5F" d="M39.2,89.1c-0.1,0.1-0.1,0.1-0.2,0.1c-0.4-0.2-0.7-0.3-0.9-0.3c-0.2,0-0.4,0.1-0.6,0.4l-2,2.8
		c-0.6,0.8-1.2,1.3-1.9,1.5c-0.7,0.2-1.4,0-2.1-0.5c-0.8-0.6-1.3-1.2-1.4-2c-0.2-0.7,0-1.5,0.6-2.2l2.1-3c0.1-0.2,0.2-0.4,0.2-0.5
		c0-0.1,0-0.3-0.1-0.4c-0.1-0.1-0.3-0.3-0.5-0.5c0,0,0-0.1,0-0.2s0.1-0.1,0.2-0.1c0.2,0.1,0.4,0.3,0.7,0.5c0.3,0.2,0.5,0.4,0.7,0.5
		c0.2,0.1,0.4,0.3,0.7,0.4c0.3,0.2,0.5,0.3,0.7,0.5c0,0,0,0.1,0,0.2s-0.1,0.1-0.2,0.1c-0.3-0.1-0.5-0.2-0.7-0.3c-0.2,0-0.3,0-0.4,0
		c-0.1,0-0.2,0.2-0.4,0.4l-2,2.9c-0.5,0.7-0.7,1.4-0.7,1.9s0.4,1,1,1.5c1.2,0.8,2.3,0.5,3.4-1l1.9-2.8c0.2-0.3,0.3-0.5,0.2-0.7
		c-0.1-0.2-0.3-0.4-0.6-0.7c0,0,0-0.1,0-0.2s0.1-0.1,0.2-0.1c0.1,0.1,0.3,0.2,0.5,0.4c0.2,0.2,0.4,0.3,0.5,0.4s0.3,0.2,0.6,0.3
		c0.2,0.1,0.4,0.3,0.6,0.4C39.3,89,39.3,89.1,39.2,89.1z"/>
	<path fill="#002E5F" d="M47,92.3c0,0.1-0.1,0.1-0.1,0.1c-0.4-0.1-0.8-0.2-1-0.1c-0.2,0-0.4,0.2-0.5,0.5l-2.6,5.9
		c0,0.1-0.1,0.1-0.2,0.1c0,0-0.1-0.1-0.1-0.1l-2.8-8.1l-2,4.7c0,0,0,0.1,0,0.1c-0.1,0.3-0.1,0.5,0,0.6c0.1,0.2,0.4,0.4,0.8,0.6
		c0.1,0,0.1,0.1,0,0.2c0,0.1-0.1,0.1-0.1,0.1c-0.2-0.1-0.4-0.2-0.7-0.3c-0.3-0.1-0.5-0.2-0.7-0.3c-0.2-0.1-0.4-0.2-0.7-0.3
		c-0.3-0.1-0.5-0.2-0.7-0.2c-0.1,0-0.1-0.1,0-0.2c0-0.1,0.1-0.1,0.1-0.1c0.4,0.1,0.8,0.2,1,0.1c0.2,0,0.4-0.2,0.5-0.5l2.1-4.7l0,0
		c0.1-0.3,0.1-0.5,0-0.7c-0.1-0.2-0.4-0.4-0.8-0.6c0,0-0.1-0.1,0-0.2c0-0.1,0.1-0.1,0.1-0.1c0.1,0,0.3,0.1,0.5,0.2
		c0.2,0.1,0.3,0.2,0.4,0.2c0.1,0,0.3,0.1,0.4,0.1c0.2,0,0.3,0.1,0.5,0.1l2.6,7.5l1.8-4.3c0.1-0.3,0.1-0.5,0-0.7
		c-0.1-0.2-0.4-0.4-0.8-0.6c-0.1,0-0.1-0.1,0-0.2c0-0.1,0.1-0.1,0.1-0.1c0.2,0.1,0.4,0.2,0.7,0.3c0.3,0.1,0.5,0.2,0.6,0.3
		c0.2,0.1,0.4,0.2,0.7,0.3c0.3,0.1,0.5,0.2,0.7,0.2C47.1,92.2,47.1,92.2,47,92.3z"/>
	<path fill="#002E5F" d="M48.6,99.9c0,0.1-0.1,0.1-0.1,0.1c-0.2-0.1-0.5-0.1-0.8-0.2c-0.3-0.1-0.6-0.2-0.8-0.2s-0.5-0.1-0.8-0.2
		c-0.3-0.1-0.6-0.1-0.9-0.2c-0.1,0-0.1-0.1-0.1-0.2c0-0.1,0.1-0.1,0.1-0.1c0.4,0,0.8,0,0.9,0c0.2-0.1,0.3-0.3,0.4-0.6l1.2-5
		c0.1-0.2,0.1-0.4,0-0.5c0-0.1-0.1-0.2-0.3-0.3c-0.1-0.1-0.4-0.2-0.7-0.3c-0.1,0-0.1-0.1-0.1-0.2c0-0.1,0.1-0.1,0.1-0.1
		c0.2,0.1,0.5,0.1,0.9,0.2c0.3,0.1,0.6,0.2,0.8,0.2s0.5,0.1,0.8,0.2c0.3,0.1,0.6,0.1,0.9,0.2c0.1,0,0.1,0.1,0.1,0.2
		c0,0.1-0.1,0.1-0.1,0.1c-0.3,0-0.5,0-0.7,0s-0.3,0.1-0.4,0.2c-0.1,0.1-0.2,0.3-0.2,0.5l-1.2,5c-0.1,0.2-0.1,0.4,0,0.5
		s0.1,0.2,0.3,0.3c0.1,0.1,0.4,0.2,0.6,0.3C48.6,99.8,48.6,99.9,48.6,99.9z"/>
	<path fill="#002E5F" d="M57.6,95.3c0,0.1-0.1,0.1-0.2,0.1c-0.1,0-0.1,0-0.1-0.1c-0.1-0.5-0.3-0.9-0.6-1.2c-0.3-0.2-0.7-0.4-1.3-0.4
		l-0.5,0c-0.2,0-0.3,0-0.4,0.1c-0.1,0.1-0.1,0.2-0.1,0.3l-0.5,5.6c0,0.3,0,0.4,0,0.5c0.1,0.1,0.2,0.2,0.3,0.3
		c0.2,0.1,0.4,0.1,0.7,0.2c0.1,0,0.1,0.1,0.1,0.2c0,0.1,0,0.2-0.1,0.1c-0.2,0-0.5-0.1-0.9-0.1c-0.3-0.1-0.6-0.1-0.8-0.1
		c-0.2,0-0.5,0-0.8,0c-0.3,0-0.6,0-0.9,0c-0.1,0-0.1-0.1-0.1-0.2c0-0.1,0-0.1,0.1-0.1c0.4,0,0.8-0.1,0.9-0.2s0.3-0.3,0.3-0.7
		l0.5-5.6c0-0.2,0-0.3-0.1-0.3c-0.1-0.1-0.2-0.1-0.4-0.1l-0.4,0c-0.5,0-1,0-1.4,0.3c-0.4,0.2-0.7,0.5-0.9,0.9c0,0.1-0.1,0.1-0.1,0.1
		c-0.1,0-0.2-0.1-0.2-0.1c0.3-0.5,0.5-1.1,0.8-1.8c0.5,0.1,1.6,0.3,3.4,0.5c1.8,0.2,3,0.2,3.5,0.2C57.5,93.8,57.5,94.5,57.6,95.3z"
		/>
	<path fill="#002E5F" d="M65.3,93c0,0,0,0.1,0,0.1c0,0,0,0-0.1,0.1c-0.4,0.1-0.6,0.2-0.8,0.3c-0.2,0.1-0.4,0.4-0.6,0.8L62,97.3
		l0.2,2.2c0,0.2,0.1,0.4,0.1,0.5c0,0.1,0.2,0.2,0.3,0.2c0.2,0.1,0.4,0.1,0.7,0.1c0.1,0,0.1,0.1,0.1,0.1c0,0.1,0,0.2-0.1,0.2
		c-0.2,0-0.5,0-0.8,0c-0.3,0-0.6,0-0.8,0c-0.2,0-0.5,0-0.8,0.1c-0.3,0-0.6,0.1-0.9,0.1c-0.1,0-0.1,0-0.1-0.1c0-0.1,0-0.1,0.1-0.2
		c0.4-0.1,0.7-0.2,0.9-0.3c0.2-0.1,0.2-0.4,0.2-0.7l-0.2-2.2l-2.1-2.8c-0.3-0.3-0.5-0.6-0.7-0.7c-0.2-0.1-0.5-0.1-0.8-0.2
		c-0.1,0-0.1,0-0.1-0.1s0-0.2,0.1-0.2c0.2,0,0.4,0,0.7,0c0.3,0,0.6,0,0.8,0c0.2,0,0.4,0,0.8-0.1c0.4-0.1,0.7-0.1,1-0.1
		c0.1,0,0.1,0,0.1,0.1s0,0.2-0.1,0.2c-0.5,0.1-0.7,0.2-0.7,0.4c0,0.1,0.1,0.3,0.3,0.6l1.8,2.3l1.5-2.6c0.1-0.2,0.2-0.3,0.1-0.5
		c0-0.1-0.1-0.2-0.2-0.3c-0.1-0.1-0.4-0.1-0.7-0.1c0,0-0.1,0-0.1-0.1s0-0.2,0.1-0.2c0.2,0,0.5,0,0.8,0c0.3,0,0.6,0,0.8,0
		c0.2,0,0.4,0,0.6-0.1c0.2,0,0.4-0.1,0.6-0.1C65.3,92.8,65.3,92.9,65.3,93z"/>
	<path fill="#002E5F" d="M74.8,95.9c0,0.6,0.1,1.2,0.2,1.9c-0.2,0.1-0.6,0.2-1.1,0.5c-0.6,0.3-1.1,0.5-1.4,0.6
		c-0.8,0.2-1.6,0.3-2.3,0.1c-0.7-0.1-1.3-0.5-1.8-0.9c-0.5-0.5-0.9-1.1-1.1-1.8c-0.2-0.7-0.2-1.4,0-2.1s0.5-1.3,1.1-1.8
		c0.5-0.5,1.2-0.9,2-1.1c0.3-0.1,0.8-0.2,1.4-0.3c0.4-0.1,0.8-0.1,1-0.2c0.2,0.5,0.4,1.1,0.8,1.7c0,0.1,0,0.1-0.1,0.1
		c-0.1,0-0.1,0-0.2,0c-0.3-0.4-0.7-0.8-1.2-0.9c-0.5-0.2-1-0.2-1.6,0c-0.8,0.2-1.4,0.8-1.8,1.6c-0.4,0.8-0.4,1.8-0.1,2.8
		c0.3,1,0.8,1.7,1.5,2.2c0.8,0.5,1.5,0.7,2.3,0.4c1.3-0.4,2-1.2,2.2-2.6c0-0.1,0-0.1,0.1-0.1C74.8,95.9,74.8,95.9,74.8,95.9z"/>
	<path fill="#002E5F" d="M82,90.4c0.5,1,0.6,2.1,0.3,3c-0.3,1-1,1.8-2.1,2.3c-1.1,0.5-2.1,0.7-3.1,0.3c-1-0.3-1.8-1-2.3-2
		c-0.5-1-0.6-2.1-0.3-3.1c0.3-1,1-1.8,2.1-2.3c1.1-0.5,2.1-0.7,3.1-0.3S81.4,89.4,82,90.4z M80.9,91c-0.5-1-1.1-1.6-1.9-2
		c-0.8-0.4-1.5-0.4-2.3,0c-0.8,0.4-1.2,1-1.4,1.9c-0.1,0.8,0,1.8,0.5,2.7c0.5,1,1.1,1.6,1.9,2s1.5,0.3,2.3-0.1
		c0.8-0.4,1.2-1,1.4-1.8C81.5,92.8,81.4,91.9,80.9,91z"/>
	<path fill="#002E5F" d="M88.5,87.6c0.3,0.6,0.6,1.2,0.9,1.8c-1.1,0.8-1.9,1.4-2.4,1.8c-0.5,0.4-1.2,1-2.3,1.9c0,0-0.1,0-0.2-0.1
		c-0.1-0.1-0.1-0.1,0-0.2c0.3-0.3,0.5-0.6,0.6-0.8c0.1-0.2,0-0.4-0.2-0.7l-3.2-4.1c-0.2-0.2-0.3-0.3-0.4-0.4s-0.3,0-0.4,0
		c-0.2,0.1-0.4,0.2-0.6,0.3c0,0-0.1,0-0.2-0.1c-0.1-0.1-0.1-0.1,0-0.2c0.2-0.2,0.4-0.3,0.7-0.5c0.3-0.2,0.5-0.3,0.7-0.5
		c0.2-0.1,0.4-0.3,0.6-0.5c0.3-0.2,0.5-0.4,0.7-0.6c0,0,0.1,0,0.2,0.1c0.1,0.1,0.1,0.1,0,0.2c-0.2,0.2-0.4,0.4-0.5,0.5
		c-0.1,0.1-0.1,0.3-0.1,0.4c0,0.1,0.1,0.3,0.3,0.5l3.3,4.2c0.3,0.3,0.6,0.4,0.9,0.1l0.9-0.7c0.4-0.3,0.6-0.6,0.7-1
		c0.1-0.4,0.1-0.9-0.1-1.6c0,0,0-0.1,0.1-0.1c0,0,0.1,0,0.1,0S88.4,87.5,88.5,87.6z"/>
	<path fill="#002E5F" d="M93,82.6c0.4,0.6,0.8,1.1,1.2,1.7c-1,1-1.7,1.7-2.1,2.2c-0.4,0.4-1,1.2-1.9,2.2c0,0-0.1,0-0.2,0
		c-0.1-0.1-0.1-0.1-0.1-0.2c0.3-0.4,0.4-0.6,0.4-0.8S90.3,87.2,90,87l-3.8-3.5c-0.2-0.2-0.3-0.3-0.5-0.3c-0.1,0-0.3,0-0.4,0.1
		c-0.2,0.1-0.3,0.2-0.6,0.4c0,0-0.1,0-0.2,0c-0.1-0.1-0.1-0.1-0.1-0.2c0.2-0.2,0.4-0.4,0.6-0.6c0.2-0.2,0.4-0.4,0.6-0.6
		s0.3-0.4,0.5-0.6c0.2-0.3,0.4-0.5,0.6-0.7c0,0,0.1,0,0.2,0c0.1,0.1,0.1,0.1,0.1,0.2c-0.2,0.3-0.3,0.5-0.4,0.6s-0.1,0.3,0,0.4
		c0,0.1,0.1,0.3,0.3,0.4l3.9,3.6c0.3,0.3,0.6,0.3,0.9,0l0.7-0.8c0.3-0.3,0.5-0.7,0.5-1.1c0-0.4-0.1-0.9-0.4-1.6c0,0,0-0.1,0-0.1
		c0,0,0.1-0.1,0.1-0.1C92.9,82.6,93,82.6,93,82.6z"/>
	<path fill="#002E5F" d="M96.9,76.8c0.4,0.6,0.8,1.1,1.1,1.6c-0.8,1.1-1.3,2-1.6,2.5c-0.3,0.5-0.8,1.3-1.5,2.5c0,0-0.1,0-0.2,0
		c-0.1,0-0.1-0.1-0.1-0.2c0.1-0.3,0.2-0.5,0.2-0.7c0-0.2,0-0.3,0-0.4c-0.1-0.1-0.2-0.2-0.4-0.4L90.1,79c-0.2-0.1-0.4-0.2-0.5-0.2
		c-0.1,0-0.3,0-0.4,0.1c-0.1,0.1-0.3,0.3-0.5,0.5c0,0-0.1,0-0.2,0c-0.1-0.1-0.1-0.1-0.1-0.2c0.5-0.8,1.1-1.5,1.6-2.4
		c0.5-0.8,1-1.6,1.5-2.4c0.5,0.2,1.1,0.4,1.6,0.6c0.1,0,0.1,0.1,0,0.2c0,0.1-0.1,0.1-0.1,0.1c-0.9-0.2-1.6,0-2,0.8l-0.6,0.9
		c-0.2,0.4-0.2,0.7,0.2,0.9l2.1,1.3l0.7-1.2c0.2-0.3,0.3-0.6,0.2-0.8c-0.1-0.2-0.3-0.4-0.6-0.7c0,0,0-0.1,0-0.2
		c0.1-0.1,0.1-0.1,0.2-0.1c0.2,0.1,0.3,0.2,0.6,0.4c0.2,0.2,0.4,0.3,0.5,0.4c0.1,0.1,0.3,0.2,0.6,0.3c0.3,0.1,0.5,0.2,0.6,0.3
		c0,0,0,0.1,0,0.2c-0.1,0.1-0.1,0.1-0.2,0.1c-0.4-0.2-0.7-0.3-1-0.3c-0.2,0-0.4,0.2-0.6,0.5l-0.7,1.2l2.3,1.4
		c0.4,0.2,0.7,0.2,0.9-0.2l0.6-1c0.2-0.4,0.3-0.8,0.3-1.3c0-0.5-0.1-1-0.4-1.4c0,0,0-0.1,0-0.1c0,0,0.1-0.1,0.1-0.1
		C96.8,76.8,96.9,76.8,96.9,76.8z"/>
	<path fill="#002E5F" d="M98.8,67.8c0.1,0,0.1,0.1,0.1,0.1c-0.1,0.4-0.1,0.7-0.1,0.9c0,0.2,0.2,0.3,0.6,0.5l0.6,0.2
		c0.5,0.2,0.9,0.3,1.1,0.3c0,0.5,0,1.1-0.1,1.6s-0.2,1.1-0.4,1.5c-0.3,0.8-0.7,1.4-1.2,1.9c-0.5,0.5-1.1,0.8-1.8,0.9
		c-0.7,0.1-1.4,0-2.1-0.2c-0.7-0.3-1.3-0.7-1.7-1.3c-0.4-0.6-0.7-1.2-0.8-2s0-1.5,0.3-2.3c0.1-0.3,0.3-0.7,0.6-1.2
		c0.3-0.4,0.5-0.8,0.5-1c0.5,0.1,1.1,0.3,1.8,0.4c0.1,0,0.1,0.1,0,0.2c0,0.1-0.1,0.1-0.1,0.1c-1.3-0.1-2.1,0.5-2.6,1.8
		c-0.3,0.8-0.2,1.6,0.2,2.4c0.5,0.8,1.2,1.4,2.1,1.7c0.9,0.4,1.8,0.4,2.7,0.1c0.9-0.3,1.4-0.8,1.7-1.6c0.4-1.1,0.4-1.8-0.2-2
		l-1.4-0.5c-0.2-0.1-0.4,0-0.5,0.1s-0.4,0.6-0.7,1.2c0,0.1-0.1,0.1-0.2,0c-0.1,0-0.1-0.1-0.1-0.1c0.1-0.2,0.2-0.6,0.4-1
		c0.2-0.4,0.3-0.7,0.4-1c0.1-0.2,0.2-0.5,0.3-0.8c0.1-0.4,0.2-0.7,0.3-0.9C98.6,67.8,98.7,67.8,98.8,67.8z"/>
	<path fill="#002E5F" d="M101.4,61.3c0.6,0.4,1.1,0.8,1.7,1c-0.3,1.4-0.5,2.3-0.6,2.9c-0.1,0.6-0.3,1.5-0.5,2.9
		c0,0.1-0.1,0.1-0.2,0.1c-0.1,0-0.1-0.1-0.1-0.1c0-0.3,0-0.5,0-0.7c0-0.2-0.1-0.3-0.2-0.4c-0.1-0.1-0.3-0.1-0.5-0.2l-5.1-0.9
		c-0.2,0-0.4,0-0.5,0s-0.2,0.1-0.3,0.3s-0.2,0.4-0.3,0.7c0,0.1-0.1,0.1-0.2,0.1c-0.1,0-0.1-0.1-0.1-0.1c0.2-0.9,0.4-1.8,0.6-2.8
		c0.2-1,0.3-1.9,0.4-2.8c0.6,0,1.1,0,1.7-0.1c0.1,0,0.1,0.1,0.1,0.2c0,0.1,0,0.1-0.1,0.1c-0.9,0.1-1.4,0.6-1.6,1.5L95.4,64
		c-0.1,0.4,0.1,0.7,0.5,0.7l2.4,0.4l0.2-1.4c0.1-0.4,0-0.6-0.1-0.8c-0.1-0.2-0.4-0.3-0.8-0.4c-0.1,0-0.1-0.1-0.1-0.2
		c0-0.1,0.1-0.1,0.1-0.1c0.2,0,0.4,0.1,0.7,0.2c0.3,0.1,0.5,0.1,0.6,0.2c0.2,0,0.4,0.1,0.7,0.1c0.3,0,0.5,0.1,0.7,0.1
		c0.1,0,0.1,0.1,0.1,0.2c0,0.1-0.1,0.1-0.1,0.1c-0.4,0-0.8,0-1,0.1S99,63.6,99,63.9l-0.2,1.4l2.7,0.5c0.4,0.1,0.7-0.1,0.8-0.5
		l0.2-1.2c0.1-0.4,0-0.9-0.2-1.4c-0.2-0.5-0.5-0.8-0.9-1.1c0,0,0-0.1,0-0.1c0,0,0-0.1,0.1-0.1C101.3,61.3,101.4,61.3,101.4,61.3z"/>
	<path fill="#002E5F" d="M101.3,56.2c0.7,0,1.3,0.3,1.7,0.8s0.6,1.1,0.5,1.8c0,0.3-0.1,0.7-0.2,1.2c-0.1,0.4-0.2,0.7-0.2,1
		c-0.6,0-1.2,0-1.9,0c-0.1,0-0.1-0.1-0.1-0.2c0-0.1,0-0.1,0.1-0.1c0.7-0.2,1.2-0.4,1.5-0.7c0.3-0.3,0.5-0.7,0.5-1.3
		c0-0.4-0.1-0.8-0.3-1.1c-0.2-0.3-0.6-0.4-1.1-0.4c-0.3,0-0.6,0.1-0.8,0.3c-0.3,0.2-0.6,0.6-1.1,1.3c-0.5,0.8-0.9,1.3-1.3,1.5
		s-0.7,0.3-1.1,0.3c-0.6,0-1.1-0.3-1.5-0.8s-0.6-1-0.5-1.7c0-0.3,0.1-0.5,0.2-0.9c0.1-0.3,0.1-0.6,0.1-0.8c0.6,0,1.2,0,1.7-0.1
		c0.1,0,0.1,0.1,0.1,0.1c0,0.1,0,0.2-0.1,0.2c-0.6,0.1-1,0.2-1.2,0.5s-0.4,0.6-0.4,1c0,0.4,0.1,0.7,0.3,1s0.5,0.4,1,0.4
		c0.3,0,0.5-0.1,0.8-0.3c0.2-0.2,0.6-0.6,1-1.3c0.5-0.8,0.9-1.3,1.3-1.5C100.5,56.3,100.9,56.2,101.3,56.2z"/>
</g>
<path fill="#002E5F" d="M58,90.8c-19.5,0-35.4-15.9-35.4-35.4S38.4,20,58,20s35.4,15.9,35.4,35.4S77.5,90.8,58,90.8z M58,20.3
	c-19.4,0-35.1,15.7-35.1,35.1c0,19.4,15.7,35.1,35.1,35.1s35.1-15.7,35.1-35.1C93.1,36.1,77.3,20.3,58,20.3z"/>
<g>
	<path fill="#002E5F" d="M33.1,24.7c0.3,0.5,0.7,1,1,1.6c-0.1,0.1-0.4,0.4-0.7,0.9c-0.4,0.6-0.7,1-1,1.2c-0.6,0.6-1.2,1-1.9,1.2
		c-0.7,0.2-1.4,0.2-2,0c-0.7-0.2-1.3-0.6-1.8-1.1c-0.5-0.5-0.9-1.1-1-1.9c-0.2-0.7-0.1-1.4,0.1-2.1s0.6-1.3,1.2-1.9
		c0.2-0.2,0.6-0.5,1.1-0.9c0.4-0.3,0.6-0.5,0.8-0.6c0.4,0.3,0.9,0.7,1.5,1.2c0,0,0,0.1-0.1,0.2c-0.1,0.1-0.1,0.1-0.2,0
		c-0.4-0.3-0.9-0.4-1.5-0.3s-1,0.3-1.4,0.7c-0.6,0.6-0.9,1.4-0.8,2.3c0.1,0.9,0.5,1.7,1.2,2.5c0.7,0.7,1.5,1.1,2.4,1.2
		s1.7-0.1,2.3-0.7c0.9-0.9,1.2-2,0.7-3.3c0-0.1,0-0.1,0-0.2C33,24.6,33,24.6,33.1,24.7z"/>
	<path fill="#002E5F" d="M40.7,21.9c0.1,0.1,0.1,0.1,0,0.2c-0.2,0.1-0.5,0.3-0.7,0.4c-0.2,0.1-0.4,0.3-0.6,0.4
		c-0.2,0.1-0.4,0.3-0.7,0.5c-0.3,0.2-0.5,0.4-0.7,0.5c0,0-0.1,0-0.2-0.1c-0.1-0.1-0.1-0.1,0-0.2c0.3-0.2,0.4-0.4,0.5-0.5
		s0.1-0.3,0-0.4c-0.1-0.1-0.2-0.2-0.3-0.3l-1.5-1.2l-1.9,1.2l0.4,1.8c0.1,0.2,0.1,0.4,0.2,0.5c0.2,0.3,0.5,0.3,1,0
		c0,0,0.1,0,0.1,0.1s0.1,0.1,0,0.2c-0.2,0.1-0.4,0.2-0.6,0.4c-0.2,0.1-0.4,0.2-0.6,0.3c-0.1,0.1-0.3,0.2-0.5,0.4
		c-0.2,0.2-0.4,0.3-0.5,0.4c0,0-0.1,0-0.1-0.1c-0.1-0.1-0.1-0.2,0-0.2c0.2-0.2,0.4-0.4,0.5-0.6s0.1-0.6,0-1l-1.3-6.7
		c0-0.1,0-0.1,0.1-0.2c0.1,0,0.1-0.1,0.2,0l5.4,4c0.3,0.2,0.6,0.3,0.9,0.4c0.3,0,0.6-0.1,0.9-0.2C40.5,21.8,40.6,21.8,40.7,21.9z
		 M36.1,21l-2.4-1.8l0.7,2.9L36.1,21z"/>
	<path fill="#002E5F" d="M45.4,17.9c0.1,0.7,0.2,1.3,0.4,2c-1.3,0.5-2.2,0.9-2.8,1.1c-0.5,0.2-1.4,0.6-2.7,1.2c-0.1,0-0.1,0-0.1-0.1
		c0-0.1,0-0.1,0-0.2c0.4-0.2,0.6-0.4,0.7-0.6c0.1-0.2,0.1-0.4-0.1-0.7L38.9,16c-0.1-0.2-0.2-0.4-0.3-0.5c-0.1-0.1-0.2-0.1-0.4-0.1
		c-0.2,0-0.4,0.1-0.7,0.1c-0.1,0-0.1,0-0.1-0.1c0-0.1,0-0.2,0-0.2c0.2-0.1,0.5-0.2,0.8-0.3c0.3-0.1,0.6-0.2,0.8-0.3
		c0.2-0.1,0.5-0.2,0.7-0.4c0.3-0.2,0.6-0.3,0.8-0.4c0.1,0,0.1,0,0.1,0.1c0,0.1,0,0.2,0,0.2c-0.3,0.2-0.5,0.3-0.6,0.4
		s-0.2,0.2-0.2,0.4c0,0.1,0,0.3,0.1,0.5l2.1,4.9c0.2,0.4,0.5,0.5,0.8,0.3l1-0.4c0.4-0.2,0.7-0.4,0.9-0.8s0.3-0.9,0.3-1.6
		c0,0,0-0.1,0.1-0.1C45.2,17.9,45.3,17.9,45.4,17.9C45.4,17.9,45.4,17.9,45.4,17.9z"/>
	<path fill="#002E5F" d="M49.5,18.8c0,0.1,0,0.2,0,0.2c-0.2,0.1-0.5,0.1-0.9,0.2c-0.3,0.1-0.6,0.1-0.8,0.2c-0.2,0.1-0.5,0.1-0.8,0.3
		c-0.3,0.1-0.6,0.2-0.8,0.3c-0.1,0-0.1,0-0.1-0.1c0-0.1,0-0.1,0-0.2c0.4-0.2,0.7-0.3,0.8-0.5c0.1-0.2,0.1-0.4,0-0.7l-1.4-5
		c-0.1-0.2-0.1-0.4-0.2-0.5c-0.1-0.1-0.2-0.1-0.4-0.1c-0.2,0-0.4,0-0.7,0.1c-0.1,0-0.1,0-0.1-0.1c0-0.1,0-0.2,0-0.2
		c0.2-0.1,0.5-0.1,0.9-0.2c0.3-0.1,0.6-0.1,0.8-0.2c0.2-0.1,0.5-0.1,0.8-0.3c0.3-0.1,0.6-0.2,0.8-0.3c0.1,0,0.1,0,0.1,0.1
		c0,0.1,0,0.2,0,0.2c-0.3,0.1-0.5,0.2-0.6,0.3c-0.1,0.1-0.2,0.2-0.3,0.3c0,0.1,0,0.3,0.1,0.5l1.4,5c0.1,0.2,0.1,0.4,0.2,0.5
		c0.1,0.1,0.2,0.1,0.4,0.1s0.4,0,0.7,0C49.5,18.7,49.5,18.7,49.5,18.8z"/>
	<path fill="#002E5F" d="M54.9,12.1c0,0.1,0,0.1-0.2,0.1c-0.1,0-0.1,0-0.1-0.1c-0.2-0.4-0.4-0.7-0.8-0.9c-0.3-0.2-0.7-0.2-1.2-0.2
		l-1,0.1c-0.4,0.1-0.6,0.3-0.6,0.7l0.3,2.4l1.2-0.2c0.4-0.1,0.6-0.2,0.7-0.4c0.1-0.2,0.2-0.5,0.1-0.9c0-0.1,0-0.1,0.1-0.1
		c0.1,0,0.2,0,0.2,0.1c0,0.2,0,0.4,0.1,0.7c0,0.3,0,0.5,0.1,0.7c0,0.2,0.1,0.4,0.1,0.6c0.1,0.3,0.1,0.5,0.1,0.7c0,0.1,0,0.1-0.1,0.1
		c-0.1,0-0.2,0-0.2-0.1c-0.1-0.4-0.3-0.7-0.4-0.9c-0.2-0.2-0.4-0.2-0.8-0.2l-1.2,0.2l0.4,2.5c0,0.3,0.1,0.4,0.2,0.5
		c0.1,0.1,0.2,0.2,0.4,0.2s0.4,0.1,0.7,0c0.1,0,0.1,0,0.1,0.1c0,0.1,0,0.2-0.1,0.2c-0.2,0-0.5,0.1-0.9,0.1c-0.3,0-0.6,0.1-0.8,0.1
		c-0.2,0-0.5,0.1-0.8,0.1c-0.3,0.1-0.6,0.1-0.9,0.2c-0.1,0-0.1,0-0.1-0.1c0-0.1,0-0.1,0.1-0.2c0.3-0.1,0.5-0.2,0.7-0.2
		s0.3-0.2,0.3-0.3c0-0.1,0.1-0.3,0-0.5L50,12.3c0-0.3-0.1-0.4-0.2-0.5c-0.1-0.1-0.2-0.2-0.4-0.2c-0.2,0-0.4-0.1-0.7,0
		c-0.1,0-0.1,0-0.1-0.1c0-0.1,0-0.2,0.1-0.2c0.9-0.1,1.9-0.2,2.8-0.3c0.9-0.1,1.8-0.3,2.7-0.5C54.5,11.1,54.7,11.6,54.9,12.1z"/>
	<path fill="#002E5F" d="M63.8,14.5c-0.1,1.2-0.5,2.1-1.2,2.8c-0.8,0.7-1.8,1-3,1c-1.2-0.1-2.2-0.5-2.9-1.2s-1-1.7-1-2.9
		c0.1-1.2,0.5-2.1,1.3-2.8c0.8-0.7,1.8-1.1,3-1c1.2,0.1,2.2,0.5,2.9,1.3C63.6,12.4,63.9,13.3,63.8,14.5z M62.6,14.5
		c0-1.1-0.2-2-0.7-2.7s-1.2-1.1-2-1.1c-0.9,0-1.6,0.3-2.1,0.9c-0.5,0.7-0.8,1.5-0.9,2.6c0,1.1,0.2,2,0.7,2.6c0.5,0.7,1.2,1.1,2,1.1
		c0.9,0,1.6-0.3,2.1-0.9C62.3,16.4,62.6,15.5,62.6,14.5z"/>
	<path fill="#002E5F" d="M71,20c0,0.1-0.1,0.1-0.1,0.1c-0.1,0-0.3-0.1-0.6-0.2c-0.2-0.1-0.4-0.1-0.4-0.1c-0.1,0-0.3-0.1-0.5-0.1
		c-0.2,0-0.4-0.1-0.5-0.1l-0.9-3c-0.1-0.4-0.3-0.7-0.4-0.8c-0.1-0.1-0.4-0.3-0.8-0.4l-0.6,2.3c-0.1,0.2-0.1,0.4,0,0.5
		c0,0.1,0.1,0.2,0.3,0.3c0.1,0.1,0.4,0.2,0.6,0.3c0.1,0,0.1,0.1,0.1,0.2c0,0.1-0.1,0.1-0.1,0.1c-0.2-0.1-0.5-0.1-0.8-0.2
		c-0.3-0.1-0.6-0.2-0.8-0.2c-0.2-0.1-0.5-0.1-0.8-0.2c-0.3-0.1-0.6-0.1-0.9-0.2c-0.1,0-0.1-0.1,0-0.2c0-0.1,0.1-0.1,0.1-0.1
		c0.3,0,0.5,0,0.7,0s0.3-0.1,0.4-0.2c0.1-0.1,0.2-0.2,0.2-0.5l1.3-5c0.1-0.2,0.1-0.4,0-0.5c0-0.1-0.1-0.2-0.3-0.3s-0.4-0.2-0.7-0.3
		c-0.1,0-0.1-0.1,0-0.2c0-0.1,0.1-0.1,0.1-0.1c0.2,0.1,0.5,0.1,0.8,0.2c0.3,0.1,0.6,0.2,0.8,0.2c0.2,0.1,0.5,0.1,0.8,0.2
		c0.3,0.1,0.6,0.1,0.9,0.2c0.8,0.2,1.4,0.5,1.7,1c0.3,0.4,0.4,1,0.3,1.6c-0.1,0.4-0.3,0.7-0.7,0.9c-0.4,0.3-0.8,0.4-1.4,0.5l1,3.1
		c0.1,0.3,0.2,0.5,0.4,0.7c0.2,0.2,0.5,0.3,0.8,0.5C71,19.9,71.1,20,71,20z M69.7,14c0.3-1-0.1-1.7-1-1.9C68.4,12,68.2,12,68,12
		c-0.2,0-0.3,0.1-0.4,0.1c-0.1,0.1-0.1,0.3-0.2,0.5l-0.6,2.4c0.2,0.1,0.5,0.2,0.8,0.2c0.6,0.1,1,0.1,1.4-0.1
		C69.3,15,69.5,14.6,69.7,14z"/>
	<path fill="#002E5F" d="M82,17.3c0,0.1-0.1,0.1-0.1,0.1c-0.4-0.2-0.8-0.2-1-0.2c-0.2,0-0.4,0.2-0.5,0.5l-3,5.8c0,0.1-0.1,0.1-0.2,0
		c0,0-0.1-0.1-0.1-0.2l-2.2-8.3l-2.3,4.5c0,0,0,0,0,0.1c-0.1,0.2-0.1,0.5,0,0.6c0.1,0.2,0.4,0.4,0.7,0.7c0,0,0.1,0.1,0,0.2
		c0,0.1-0.1,0.1-0.1,0.1c-0.2-0.1-0.4-0.2-0.7-0.4c-0.3-0.2-0.5-0.3-0.6-0.3c-0.2-0.1-0.4-0.2-0.7-0.3c-0.3-0.1-0.5-0.2-0.6-0.3
		c-0.1,0-0.1-0.1,0-0.2c0-0.1,0.1-0.1,0.2-0.1c0.4,0.2,0.7,0.2,1,0.2c0.2,0,0.4-0.2,0.5-0.5l2.5-4.6l0,0c0.1-0.3,0.1-0.5,0-0.7
		s-0.4-0.4-0.7-0.7c0,0,0-0.1,0-0.2c0-0.1,0.1-0.1,0.1-0.1c0.1,0.1,0.3,0.1,0.5,0.3c0.2,0.1,0.3,0.2,0.4,0.2
		c0.1,0.1,0.3,0.1,0.4,0.2c0.2,0.1,0.3,0.1,0.4,0.2l2.1,7.7l2.1-4.2c0.1-0.3,0.2-0.5,0.1-0.7c-0.1-0.2-0.4-0.4-0.8-0.7
		c0,0-0.1-0.1,0-0.2c0-0.1,0.1-0.1,0.1-0.1c0.2,0.1,0.4,0.2,0.7,0.4c0.3,0.2,0.5,0.3,0.6,0.3c0.2,0.1,0.4,0.2,0.7,0.3
		c0.3,0.1,0.5,0.2,0.6,0.3C82.1,17.1,82.1,17.2,82,17.3z"/>
	<path fill="#002E5F" d="M81.4,26.1c-0.1,0.1-0.1,0.1-0.2,0.1c-0.2-0.1-0.4-0.3-0.7-0.5c-0.2-0.2-0.5-0.4-0.6-0.5
		c-0.2-0.1-0.4-0.3-0.7-0.5c-0.3-0.2-0.5-0.3-0.7-0.5c0,0,0-0.1,0-0.2c0.1-0.1,0.1-0.1,0.2-0.1c0.4,0.2,0.7,0.3,0.9,0.3
		c0.2,0,0.4-0.1,0.6-0.4l3-4.2c0.2-0.2,0.2-0.4,0.2-0.5c0-0.1,0-0.3-0.1-0.4c-0.1-0.1-0.3-0.3-0.5-0.5c0,0,0-0.1,0-0.2
		C82.9,18,82.9,18,83,18c0.2,0.1,0.4,0.3,0.7,0.5c0.2,0.2,0.5,0.4,0.6,0.5c0.2,0.1,0.4,0.3,0.7,0.5c0.3,0.2,0.5,0.3,0.7,0.5
		c0,0,0,0.1,0,0.2c-0.1,0.1-0.1,0.1-0.2,0.1c-0.3-0.2-0.5-0.2-0.7-0.3c-0.2,0-0.3,0-0.4,0c-0.1,0-0.2,0.2-0.4,0.4l-3,4.2
		c-0.1,0.2-0.2,0.4-0.2,0.5c0,0.1,0,0.3,0.1,0.4c0.1,0.1,0.3,0.3,0.5,0.5C81.5,26,81.5,26,81.4,26.1z"/>
	<path fill="#002E5F" d="M87.1,31.5c-0.1,0.1-0.1,0.1-0.2,0c-0.2-0.2-0.4-0.4-0.6-0.6c-0.2-0.2-0.3-0.4-0.5-0.5
		c-0.2-0.2-0.4-0.3-0.6-0.6c-0.3-0.2-0.5-0.4-0.7-0.6c0,0,0-0.1,0-0.2s0.1-0.1,0.2-0.1c0.2,0.2,0.4,0.4,0.6,0.4c0.2,0,0.3,0,0.4-0.1
		c0.1-0.1,0.1-0.2,0.2-0.4l0.8-1.8l-1.6-1.6l-1.6,0.8c-0.2,0.1-0.4,0.2-0.5,0.3c-0.2,0.2-0.1,0.6,0.3,1c0,0,0,0.1-0.1,0.2
		c-0.1,0.1-0.1,0.1-0.2,0c-0.2-0.2-0.3-0.3-0.5-0.5c-0.2-0.2-0.3-0.4-0.5-0.5c-0.1-0.1-0.3-0.2-0.4-0.4c-0.2-0.2-0.4-0.3-0.5-0.4
		c0,0,0-0.1,0-0.2c0.1-0.1,0.1-0.1,0.2,0c0.2,0.2,0.5,0.3,0.7,0.3c0.2,0,0.6,0,1-0.2l6.3-2.7c0.1,0,0.1,0,0.2,0
		c0.1,0.1,0.1,0.1,0.1,0.2l-2.8,6.1c-0.2,0.3-0.2,0.7-0.2,0.9c0,0.3,0.2,0.6,0.4,0.8C87.2,31.4,87.2,31.5,87.1,31.5z M87.1,26.9
		l1.3-2.7l-2.7,1.3L87.1,26.9z"/>
</g>
<g>
	<path fill="#002E5F" d="M75.4,61.1c-3.1-9.3-13.7-16.9-17.5-19.3c4.7,5.7,13.1,18,10.7,30.9c-1.3,7-4.8,10.5-7.4,12.1
		c4.7-0.5,9-2.1,12.8-4.5C75.5,78.3,79,72.1,75.4,61.1z"/>
	<path fill="#002E5F" d="M44,72.4c2.8-0.7,5.1-2.6,6.8-5.6c5.4-9.5,4.9-16.7,4.5-23c-0.1-1.3-0.2-2.6-0.2-3.9l0-0.8l0.8,0.2
		c0.3,0.1,29.4,7.4,30.3,25.2c0.9-2.9,1.5-6,1.5-9.2C87.6,39,74.3,25.8,58,25.8S28.3,39,28.3,55.4c0,5.3,1.4,10.3,3.9,14.7
		C33.5,70.8,38.9,73.7,44,72.4z"/>
	<path fill="#002E5F" d="M67.6,72.6c2.4-12.6-6-24.7-10.5-30.2c6.3,14.8,4.7,27.4,0.1,33.6c-3.9,5.3-8.3,6.4-11.4,6.5
		C49.5,84.1,53.6,85,58,85c0.3,0,0.5,0,0.8,0C60.8,84.2,65.9,81.4,67.6,72.6z"/>
	<path fill="#002E5F" d="M56.4,75.4c5.8-7.8,4.2-21.3,0.1-31.7c0,0,0,0.1,0,0.1c0.4,6.1,0.9,13.8-4.6,23.6c-1.9,3.3-4.4,5.4-7.6,6.2
		c-1,0.2-2,0.4-3,0.4c-3.1,0-5.9-1-7.8-1.9c2.6,3.7,6,6.9,10,9.1C45.8,81.7,51.5,82,56.4,75.4z"/>
	<path fill="#002E5F" d="M60,42c4.7,3.2,13.4,10.2,16.3,18.8c3,8.9,1.4,14.8-0.2,18c3.6-2.8,6.5-6.4,8.5-10.5
		C87.2,53.3,68.8,45,60,42z"/>
</g>
<path fill="#F6BA42" d="M50.2,36.1c0,0,0.5-1.6,0-1.6s-18.2,6-14.9,26.8s37.2,24,43.4,0L77,61.9c0,0-4.8,9.1-15.8,9.8
	s-14-5-17.6-8.5l9.8-7.4V40.1l3.5-2.6l14,4.8l6.6-4.1l-0.1-1.8h-1.6v0.9l-16-4.4l-12,8.2v16.5l-5,3.5C42.7,61.1,35.2,46.6,50.2,36.1
	z"/>
</svg>
