<?xml version="1.0" encoding="utf-8"?>
<!-- Generator: Adobe Illustrator 17.1.0, SVG Export Plug-In . SVG Version: 6.00 Build 0)  -->
<!DOCTYPE svg PUBLIC "-//W3C//DTD SVG 1.1//EN" "http://www.w3.org/Graphics/SVG/1.1/DTD/svg11.dtd">
<svg version="1.1" id="Layer_1" xmlns="http://www.w3.org/2000/svg" xmlns:xlink="http://www.w3.org/1999/xlink" x="0px" y="0px"
	 viewBox="0 0 318.5 126" enable-background="new 0 0 318.5 126" xml:space="preserve">
<circle fill="#292B77" cx="263.5" cy="46.7" r="3.5"/>
<path fill="#292B77" d="M254.5,42l0.7,1.2c0,0,0.2,10.5,4.8,10.5s8.5-1.7,30.3-21.7v1c0,0-23.2,24.3-29.5,36.3
	c-6.3,12-6.8,18.3-7.8,29.3h-1.2c0,0,0.8-11.7-6-13.7c-6.8-2-24,3.2-25,4c0,0,19.5-6.3,26.8-19.2C255,57,253.8,49.5,254.5,42z"/>
<path fill="#292B77" d="M39.2,104.5c0,0,45.5-16.5,116-16s109.7,12.8,116.8,16c0,0-53.8-11.5-117.3-10S50.8,101.7,39.2,104.5z"/>
<g>
	<path fill="#292B77" d="M267.1,19.8c0,0,0.5,13.8,15.2,14.5v1.3C282.3,35.5,267.6,34.9,267.1,19.8z"/>
	<path fill="#292B77" d="M282.3,35.6C282.2,35.6,282.2,35.6,282.3,35.6c-0.2,0-14.8-0.8-15.3-15.9c0,0,0,0,0,0c0,0,0,0,0,0
		c0-0.1,0.1-0.1,0.1-0.1c0,0,0,0,0,0c0.1,0,0.1,0.1,0.1,0.1c0,0,0.1,3.5,2.1,6.9c1.8,3.2,5.5,7.1,13,7.4c0.1,0,0.1,0.1,0.1,0.1v1.3
		C282.4,35.5,282.4,35.6,282.3,35.6C282.3,35.6,282.3,35.6,282.3,35.6z M267.7,23.5c1.2,5.3,4.5,8.2,7.2,9.7
		c3.3,1.8,6.5,2.1,7.2,2.2v-1c-7.6-0.4-11.3-4.3-13.1-7.5C268.4,25.7,268,24.5,267.7,23.5z"/>
</g>
<g>
	<path fill="#292B77" d="M285.3,34c0,0,12.9-2.3,13.4-16.1l1.3-0.1C300,17.8,300,32.3,285.3,34z"/>
	<path fill="#292B77" d="M285.3,34.1c-0.1,0-0.1,0-0.1-0.1c0-0.1,0-0.1,0.1-0.1c0.1,0,12.8-2.4,13.3-16c0-0.1,0.1-0.1,0.1-0.1
		l1.3-0.1c0,0,0.1,0,0.1,0c0,0,0,0.1,0,0.1C300.1,17.9,300,32.4,285.3,34.1C285.3,34.1,285.3,34.1,285.3,34.1z M298.8,18
		c-0.4,10.3-7.7,14.2-11.4,15.5c6.1-1.4,9.1-5.2,10.6-8.3c1.6-3.4,1.8-6.6,1.8-7.3L298.8,18z"/>
</g>
<g>
	<path fill="#292B77" d="M298.6,16c0,0-0.8-13.8-15.5-14.1l0-1.3C283,0.6,297.7,0.9,298.6,16z"/>
	<path fill="#292B77" d="M298.6,16.2c-0.1,0-0.1-0.1-0.1-0.1v0l0,0c0-0.1-0.2-3.5-2.2-6.9c-1.8-3.1-5.6-6.9-13.1-7.1
		c-0.1,0-0.1-0.1-0.1-0.1l0-1.3c0,0,0-0.1,0-0.1c0,0,0.1,0,0.1,0c0.1,0,14.8,0.4,15.7,15.5c0,0,0,0,0,0c0,0,0,0,0,0
		C298.7,16.1,298.6,16.2,298.6,16.2C298.6,16.2,298.6,16.2,298.6,16.2z M283.2,1.8c7.6,0.2,11.4,4,13.2,7.2c0.7,1.1,1.1,2.2,1.5,3.2
		c-1.3-5.3-4.6-8.1-7.5-9.5c-3.3-1.7-6.6-2-7.3-2L283.2,1.8z"/>
</g>
<g>
	<path fill="#292B77" d="M280.3,1.5c0,0-14,2.2-14,16.2l-1.3,0.1C265.1,17.8,265.3,3,280.3,1.5z"/>
	<path fill="#292B77" d="M265.1,17.9C265,17.9,265,17.9,265.1,17.9c-0.1-0.1-0.1-0.1-0.1-0.1c0-0.1,0.4-15,15.4-16.4
		c0.1,0,0.1,0,0.1,0.1s0,0.1-0.1,0.1c-0.1,0-13.9,2.3-13.9,16.1c0,0.1-0.1,0.1-0.1,0.1L265.1,17.9C265.1,17.9,265.1,17.9,265.1,17.9
		z M278.1,2c-6.2,1.3-9.3,5.1-10.9,8.3c-1.7,3.4-1.9,6.7-2,7.4l1-0.1C266.3,7.2,274.1,3.3,278.1,2z"/>
</g>
<g>
	<path fill="#292B77" d="M285.9,4.8c0,0-6,2.7-9.1,10.5c-3.3,8.6-1.8,14.4-1.8,14.4s0.5,0.3,0.7-0.2c0,0-0.6-6.8,2.7-14.2
		s6.1-9.3,7.2-10.2L285.9,4.8z"/>
	<path fill="#292B77" d="M275.4,30c-0.2,0-0.4-0.1-0.4-0.1c0,0-0.1,0-0.1-0.1c0-0.1-0.4-1.5-0.3-4c0-2.3,0.5-6,2.2-10.5
		c3-7.8,9.1-10.6,9.1-10.6c0,0,0.1,0,0.1,0c0,0,0,0.1,0,0.1l-0.3,0.4c0,0,0,0,0,0c-0.1,0.1-0.1,0.1-0.2,0.2c-1.3,1-3.9,3-7,9.9
		c-3.3,7.3-2.7,14.1-2.7,14.1c0,0,0,0,0,0.1C275.8,29.8,275.6,30,275.4,30z M275.1,29.6c0.1,0,0.1,0.1,0.2,0.1c0.1,0,0.2,0,0.2-0.1
		c0-0.5-0.5-7.1,2.7-14.2c3.1-7,5.8-9,7-10c0.1-0.1,0.1-0.1,0.2-0.2l0,0c-2.2,1.1-6.4,4.5-8.6,10.3C273.9,23.4,275,29,275.1,29.6z"
		/>
</g>
<g>
	<path fill="#292B77" d="M272,12.5c0,0,2.1,5.4,8.9,8.5c7.5,3.4,12.6,2.3,12.6,2.3s0.3-0.5-0.1-0.6c0,0-6,0.2-12.4-3
		c-6.4-3.3-7.9-5.8-8.6-6.8L272,12.5z"/>
	<path fill="#292B77" d="M291.3,23.6c-2.3,0-6-0.4-10.5-2.5c-6.8-3-8.9-8.5-9-8.6c0-0.1,0-0.1,0-0.1c0,0,0.1,0,0.1,0l0.4,0.3
		c0,0,0,0,0,0l0.1,0.2c0.8,1.2,2.5,3.6,8.5,6.6c5.5,2.8,10.6,3,12.1,3c0.2,0,0.3,0,0.3,0c0,0,0,0,0.1,0c0.1,0.1,0.2,0.2,0.3,0.3
		c0.1,0.2-0.1,0.5-0.1,0.5c0,0,0,0.1-0.1,0.1C293.5,23.4,292.7,23.6,291.3,23.6z M272.3,12.9c0.7,1.4,3.1,5.5,8.6,8
		c4.5,2,8.2,2.4,10.4,2.4c1.1,0,1.9-0.1,2.1-0.1c0-0.1,0.1-0.2,0-0.3c0,0,0-0.1-0.1-0.1c0,0-0.1,0-0.3,0c-1.5,0-6.7-0.2-12.2-3
		c-6-3.1-7.7-5.5-8.5-6.7L272.3,12.9z"/>
</g>
<g>
	<path fill="#292B77" d="M271,20.6c0,0,1.2,4.8,6.9,7.4c6.3,2.8,10.6,1.9,10.6,1.9s0.2-0.4-0.1-0.5c0,0-5.1,0.2-10.4-2.5
		c-5.4-2.8-6.1-5.1-6.7-6L271,20.6z"/>
	<path fill="#292B77" d="M286.8,30.1c-1.9,0-5.1-0.4-8.9-2.1c-3-1.3-4.7-3.3-5.7-4.7c-1-1.5-1.3-2.7-1.3-2.8c0-0.1,0-0.1,0.1-0.1
		c0,0,0.1,0,0.1,0l0.3,0.2c0,0,0,0,0,0c0.1,0.1,0.2,0.3,0.3,0.5c0.6,1.1,1.8,3.1,6.4,5.5c4.6,2.4,8.9,2.5,10.2,2.5
		c0.2,0,0.2,0,0.2,0c0,0,0,0,0.1,0c0.1,0.1,0.2,0.1,0.2,0.3c0.1,0.2-0.1,0.4-0.1,0.5c0,0,0,0.1-0.1,0.1
		C288.6,30,287.9,30.1,286.8,30.1z M271.2,20.9c0.2,0.5,0.5,1.3,1.2,2.3c0.9,1.4,2.6,3.3,5.5,4.6c3.8,1.7,6.9,2.1,8.8,2.1
		c0.9,0,1.6-0.1,1.7-0.1c0-0.1,0.1-0.1,0-0.2c0,0,0-0.1-0.1-0.1c0,0-0.1,0-0.2,0c-1.2,0-5.6-0.2-10.3-2.6c-4.6-2.4-5.8-4.4-6.5-5.6
		C271.4,21.2,271.3,21,271.2,20.9z"/>
</g>
<g>
	<path fill="#292B77" d="M277.6,5.8c0,0,1.5,5.6,7.3,8c5.5,2.3,9.9,1.7,9.9,1.7s0.2-0.4-0.1-0.5c0,0-4.7-0.2-10.1-3
		c-5.4-2.8-6.1-5.1-6.7-6L277.6,5.8z"/>
	<path fill="#292B77" d="M293.5,15.7c-1.6,0-4.9-0.2-8.6-1.8c-5.8-2.4-7.3-8-7.4-8.1c0-0.1,0-0.1,0-0.1c0,0,0.1,0,0.1,0l0.3,0.2
		c0,0,0,0,0,0c0.1,0.1,0.2,0.3,0.3,0.5c0.6,1.1,1.8,3.1,6.4,5.5c5.3,2.7,10,2.9,10,2.9c0,0,0,0,0,0c0.1,0.1,0.2,0.1,0.2,0.3
		c0.1,0.2-0.1,0.4-0.1,0.5c0,0-0.1,0.1-0.1,0.1C294.8,15.6,294.3,15.7,293.5,15.7z M277.9,6.1c0.5,1.3,2.3,5.5,7.1,7.5
		c3.7,1.6,6.9,1.8,8.5,1.8c0.7,0,1.1,0,1.2-0.1c0-0.1,0-0.1,0-0.2c0,0,0-0.1-0.1-0.1c-0.4,0-5-0.3-10.1-3c-4.6-2.4-5.8-4.4-6.5-5.6
		C278,6.4,278,6.2,277.9,6.1z"/>
</g>
<g>
	<path fill="#292B77" d="M282.2,31.5c1-1,3.4-3.2,5.6-11.1c2.2-7.8,2.3-14.2,2.3-14.2c0.1-0.5,0.7-0.3,0.7-0.3s0.7,5.2-1.4,14.3
		c-1.9,8.2-6.5,11.2-7.3,11.7C282,32,282.2,31.5,282.2,31.5z"/>
	<path fill="#292B77" d="M282.1,32c0,0-0.1,0-0.1-0.1c0,0-0.1-0.1,0.1-0.5c0,0,0,0,0,0c0.1-0.1,0.1-0.1,0.2-0.2
		c1.1-1.1,3.3-3.5,5.4-10.8c2.2-7.7,2.3-14.1,2.3-14.2c0.1-0.3,0.3-0.4,0.5-0.4c0.2,0,0.3,0,0.3,0.1c0,0,0.1,0.1,0.1,0.1
		c0,0.1,0.6,5.4-1.4,14.3C287.6,28.5,283,31.5,282.1,32C282.1,32,282.1,32,282.1,32z M282.3,31.6C282.3,31.6,282.2,31.6,282.3,31.6
		c1.2-0.7,5.3-3.8,7-11.4c1.9-8.3,1.5-13.4,1.4-14.1c0,0-0.1,0-0.2,0c-0.2,0-0.3,0.1-0.3,0.2c0,0-0.1,6.5-2.3,14.2
		c-2.1,7.4-4.4,9.8-5.4,10.9C282.4,31.5,282.3,31.5,282.3,31.6z"/>
</g>
<g>
	<path fill="#292B77" d="M11.5,122c-0.2,0.9-0.4,1.8-0.6,2.8c-0.3,0-0.9,0.1-1.7,0.2c-1.1,0.2-1.8,0.3-2.3,0.3
		c-1.3,0-2.3-0.2-3.3-0.7s-1.7-1.2-2.2-2.1c-0.5-0.9-0.8-1.9-0.8-3.1c0-1.1,0.3-2.1,0.8-3.1c0.6-0.9,1.3-1.7,2.3-2.2
		s2.1-0.8,3.3-0.8c0.5,0,1.2,0.1,2.1,0.2c0.7,0.1,1.2,0.1,1.5,0.1c0.1,0.8,0.2,1.7,0.4,2.8c0,0.1-0.1,0.1-0.3,0.1
		c-0.1,0-0.2,0-0.2-0.1c-0.2-0.7-0.6-1.4-1.3-1.8s-1.4-0.7-2.3-0.7c-1.3,0-2.4,0.5-3.2,1.6c-0.9,1.1-1.3,2.4-1.3,3.9
		c0,1.5,0.4,2.8,1.3,3.8c0.9,1.1,1.9,1.6,3.2,1.6c2,0,3.3-0.9,4.2-2.8c0-0.1,0.1-0.1,0.2-0.1C11.4,121.9,11.5,121.9,11.5,122z"/>
	<path fill="#292B77" d="M23.6,122c-0.2,0.9-0.4,1.8-0.6,2.8c-0.3,0-0.9,0.1-1.7,0.2c-1.1,0.2-1.8,0.3-2.3,0.3
		c-1.3,0-2.3-0.2-3.3-0.7s-1.7-1.2-2.2-2.1c-0.5-0.9-0.8-1.9-0.8-3.1c0-1.1,0.3-2.1,0.8-3.1c0.6-0.9,1.3-1.7,2.3-2.2
		s2.1-0.8,3.3-0.8c0.5,0,1.2,0.1,2.1,0.2c0.7,0.1,1.2,0.1,1.5,0.1c0.1,0.8,0.2,1.7,0.4,2.8c0,0.1-0.1,0.1-0.3,0.1
		c-0.1,0-0.2,0-0.2-0.1c-0.2-0.7-0.6-1.4-1.3-1.8s-1.4-0.7-2.3-0.7c-1.3,0-2.4,0.5-3.2,1.6c-0.9,1.1-1.3,2.4-1.3,3.9
		c0,1.5,0.4,2.8,1.3,3.8c0.9,1.1,1.9,1.6,3.2,1.6c2,0,3.3-0.9,4.2-2.8c0-0.1,0.1-0.1,0.2-0.1C23.5,121.9,23.6,121.9,23.6,122z"/>
	<path fill="#292B77" d="M35.7,122c-0.2,0.9-0.4,1.8-0.6,2.8c-0.3,0-0.9,0.1-1.7,0.2c-1.1,0.2-1.8,0.3-2.3,0.3
		c-1.3,0-2.3-0.2-3.3-0.7s-1.7-1.2-2.2-2.1c-0.5-0.9-0.8-1.9-0.8-3.1c0-1.1,0.3-2.1,0.8-3.1c0.6-0.9,1.3-1.7,2.3-2.2
		s2.1-0.8,3.3-0.8c0.5,0,1.2,0.1,2.1,0.2c0.7,0.1,1.2,0.1,1.5,0.1c0.1,0.8,0.2,1.7,0.4,2.8c0,0.1-0.1,0.1-0.3,0.1
		c-0.1,0-0.2,0-0.2-0.1c-0.2-0.7-0.6-1.4-1.3-1.8s-1.4-0.7-2.3-0.7c-1.3,0-2.4,0.5-3.2,1.6c-0.9,1.1-1.3,2.4-1.3,3.9
		c0,1.5,0.4,2.8,1.3,3.8c0.9,1.1,1.9,1.6,3.2,1.6c2,0,3.3-0.9,4.2-2.8c0-0.1,0.1-0.1,0.2-0.1C35.6,121.9,35.7,121.9,35.7,122z"/>
	<path fill="#292B77" d="M47.8,116.3c0,0.1-0.1,0.2-0.3,0.2c-0.1,0-0.1,0-0.2-0.1c-0.2-0.8-0.6-1.3-1-1.6c-0.4-0.3-1.1-0.5-2-0.5
		h-0.8c-0.3,0-0.5,0-0.6,0.1s-0.1,0.3-0.1,0.5v8.4c0,0.4,0,0.6,0.1,0.8c0.1,0.2,0.3,0.3,0.5,0.4s0.6,0.2,1,0.2
		c0.1,0,0.1,0.1,0.1,0.2c0,0.2,0,0.2-0.1,0.2c-0.4,0-0.8,0-1.3,0c-0.5,0-0.9,0-1.2,0c-0.3,0-0.7,0-1.2,0c-0.5,0-0.9,0-1.3,0
		c-0.1,0-0.1-0.1-0.1-0.2c0-0.1,0-0.2,0.1-0.2c0.7-0.1,1.1-0.2,1.4-0.4s0.4-0.5,0.4-1v-8.4c0-0.2,0-0.4-0.1-0.5
		c-0.1-0.1-0.3-0.1-0.6-0.1h-0.6c-0.8,0-1.5,0.2-2.1,0.6s-1,0.9-1.2,1.5c0,0.1-0.1,0.1-0.2,0.1c-0.2,0-0.3-0.1-0.3-0.2
		c0.3-0.8,0.6-1.8,0.9-2.8c0.7,0.2,2.5,0.2,5.1,0.2c2.7,0,4.5-0.1,5.2-0.2C47.4,114.2,47.6,115.1,47.8,116.3z"/>
	<path fill="#292B77" d="M59.7,124.8c0,0.2,0,0.2-0.1,0.2c-0.2,0-0.5,0-1-0.1c-0.3,0-0.6,0-0.7,0c-0.2,0-0.4,0-0.7,0
		c-0.3,0-0.6,0-0.7,0L54,121c-0.4-0.6-0.6-0.9-0.9-1.1c-0.2-0.2-0.7-0.2-1.3-0.2v3.5c0,0.4,0,0.6,0.1,0.8c0.1,0.2,0.3,0.3,0.5,0.4
		c0.2,0.1,0.6,0.2,1,0.2c0.1,0,0.1,0.1,0.1,0.2c0,0.2,0,0.2-0.1,0.2c-0.4,0-0.8,0-1.3,0c-0.5,0-0.9,0-1.2,0s-0.7,0-1.2,0
		c-0.5,0-0.9,0-1.3,0c-0.1,0-0.1-0.1-0.1-0.2c0-0.1,0-0.2,0.1-0.2c0.5-0.1,0.8-0.1,1-0.2c0.2-0.1,0.4-0.2,0.5-0.4
		c0.1-0.2,0.1-0.4,0.1-0.8v-7.8c0-0.4,0-0.6-0.1-0.8c-0.1-0.2-0.3-0.3-0.5-0.4c-0.2-0.1-0.6-0.2-1.1-0.2c-0.1,0-0.1-0.1-0.1-0.2
		c0-0.2,0-0.2,0.1-0.2c0.4,0,0.8,0,1.3,0c0.5,0,0.9,0,1.2,0s0.7,0,1.2,0c0.5,0,0.9,0,1.3,0c1.2,0,2.2,0.3,2.8,0.8
		c0.7,0.5,1,1.2,1,2.2c0,0.6-0.2,1.1-0.7,1.6s-1,0.9-1.8,1.2l2.5,4.1c0.2,0.4,0.5,0.6,0.9,0.8s0.8,0.3,1.3,0.4
		C59.7,124.6,59.7,124.7,59.7,124.8z M55.5,116.6c0-1.6-0.7-2.4-2.1-2.4c-0.5,0-0.8,0-1,0.1c-0.2,0.1-0.4,0.2-0.5,0.4
		s-0.1,0.4-0.1,0.8v3.7c0.3,0,0.7,0.1,1.2,0.1c0.9,0,1.5-0.2,1.9-0.6C55.3,118.2,55.5,117.5,55.5,116.6z"/>
	<path fill="#292B77" d="M71.9,124.8c0,0.2,0,0.2-0.1,0.2c-0.4,0-0.8,0-1.3,0c-0.4,0-0.8,0-1.1,0c-0.3,0-0.8,0-1.2,0
		c-0.5,0-1,0-1.3,0c-0.1,0-0.1-0.1-0.1-0.2c0-0.2,0-0.2,0.1-0.2c0.5,0,0.8-0.1,1.1-0.2c0.2-0.1,0.3-0.3,0.3-0.5
		c0-0.1-0.1-0.4-0.2-0.7l-0.9-2.8h-3.4l-0.9,2.6c-0.1,0.3-0.2,0.6-0.2,0.8c0,0.5,0.4,0.8,1.3,0.8c0.1,0,0.1,0.1,0.1,0.2
		c0,0.2,0,0.2-0.1,0.2c-0.3,0-0.7,0-1.1,0c-0.4,0-0.7,0-1,0c-0.2,0-0.5,0-0.9,0c-0.4,0-0.7,0-1,0c-0.1,0-0.1-0.1-0.1-0.2
		c0-0.2,0.1-0.2,0.2-0.2c0.5,0,0.8-0.2,1.1-0.4c0.3-0.2,0.5-0.6,0.8-1.3l3.9-9.5c0-0.1,0.1-0.1,0.2-0.1c0.1,0,0.2,0,0.2,0.1l3.4,9.5
		c0.2,0.5,0.5,0.9,0.8,1.2c0.3,0.3,0.8,0.4,1.3,0.5C71.9,124.6,71.9,124.7,71.9,124.8z M66.9,119.9l-1.4-4.2l-1.6,4.2H66.9z"/>
	<path fill="#292B77" d="M86.1,113.8c0,0.1,0,0.2-0.1,0.2c-0.7,0.1-1.2,0.2-1.4,0.4c-0.3,0.2-0.4,0.5-0.4,1l-0.2,9.7
		c0,0.1-0.1,0.2-0.2,0.2c-0.1,0-0.2,0-0.3-0.1l-8.5-9.6l-0.1,7.6c0,0,0,0.1,0,0.1c0,0.4,0.1,0.7,0.4,0.9c0.3,0.2,0.7,0.3,1.4,0.4
		c0.1,0,0.1,0.1,0.1,0.2c0,0.2,0,0.2-0.1,0.2c-0.3,0-0.7,0-1.2,0c-0.5,0-0.8,0-1.1,0c-0.3,0-0.6,0-1.1,0c-0.5,0-0.8,0-1,0
		c-0.1,0-0.1-0.1-0.1-0.2c0-0.1,0-0.2,0.1-0.2c0.7-0.1,1.1-0.2,1.4-0.4s0.4-0.5,0.4-1l0.3-7.8v-0.1c0-0.4-0.1-0.8-0.4-0.9
		s-0.7-0.3-1.4-0.4c-0.1,0-0.1-0.1-0.1-0.2c0-0.2,0-0.2,0.1-0.2c0.2,0,0.5,0,0.8,0c0.3,0,0.5,0,0.7,0c0.2,0,0.4,0,0.7,0
		c0.3,0,0.5,0,0.7,0l7.9,8.9v-7c0-0.5-0.1-0.8-0.4-1c-0.3-0.2-0.8-0.3-1.5-0.4c-0.1,0-0.1-0.1-0.1-0.2c0-0.2,0-0.2,0.1-0.2
		c0.3,0,0.7,0,1.2,0c0.5,0,0.8,0,1.1,0c0.3,0,0.6,0,1.1,0c0.5,0,0.8,0,1,0C86,113.6,86.1,113.7,86.1,113.8z"/>
	<path fill="#292B77" d="M93.9,121.8c0,1.1-0.3,2-1,2.6c-0.6,0.6-1.5,1-2.6,1c-0.5,0-1.1-0.1-1.8-0.3c-0.6-0.2-1.1-0.2-1.5-0.2
		c0-0.9-0.1-1.9-0.2-2.8c0-0.1,0.1-0.1,0.2-0.1c0.1,0,0.2,0,0.2,0.1c0.3,1,0.7,1.7,1.1,2.2c0.5,0.4,1.1,0.6,1.9,0.6
		c0.7,0,1.2-0.2,1.5-0.6c0.4-0.4,0.5-0.9,0.5-1.6c0-0.4-0.2-0.9-0.5-1.2c-0.3-0.4-1-0.9-2-1.5c-1.2-0.7-2-1.3-2.3-1.7
		s-0.6-1-0.6-1.6c0-0.9,0.3-1.7,1-2.3c0.7-0.6,1.5-0.9,2.5-0.9c0.4,0,0.8,0.1,1.3,0.2c0.5,0.1,0.9,0.1,1.2,0.1
		c0.1,1,0.2,1.8,0.3,2.6c0,0.1-0.1,0.1-0.2,0.1c-0.2,0-0.2,0-0.3-0.1c-0.2-0.8-0.5-1.4-0.8-1.8s-0.9-0.5-1.5-0.5
		c-0.6,0-1.1,0.2-1.5,0.5c-0.4,0.4-0.5,0.9-0.5,1.5c0,0.4,0.2,0.8,0.5,1.1c0.3,0.4,1,0.8,2,1.4c1.2,0.7,2,1.3,2.4,1.8
		C93.7,120.7,93.9,121.2,93.9,121.8z"/>
	<path fill="#292B77" d="M104.1,116.1c0,0.1-0.1,0.2-0.3,0.2c-0.1,0-0.2,0-0.2-0.1c-0.2-0.6-0.5-1.1-1-1.4c-0.5-0.3-1-0.5-1.7-0.5
		h-1.5c-0.6,0-1,0.3-1,1v3.7h1.9c0.5,0,0.9-0.1,1.1-0.4c0.2-0.3,0.3-0.7,0.4-1.3c0-0.1,0.1-0.1,0.2-0.1c0.2,0,0.2,0,0.2,0.1
		c0,0.3,0,0.6,0,1c0,0.4,0,0.7,0,1c0,0.3,0,0.6,0,1c0,0.4,0,0.8,0,1.1c0,0.1-0.1,0.1-0.2,0.1c-0.1,0-0.2,0-0.2-0.1
		c-0.1-0.7-0.2-1.1-0.4-1.4c-0.2-0.3-0.6-0.4-1.1-0.4h-1.9v3.8c0,0.4,0,0.6,0.1,0.8c0.1,0.2,0.3,0.3,0.5,0.4c0.2,0.1,0.6,0.2,1,0.2
		c0.1,0,0.1,0.1,0.1,0.2c0,0.2,0,0.2-0.1,0.2c-0.4,0-0.8,0-1.3,0c-0.5,0-0.9,0-1.2,0s-0.7,0-1.2,0c-0.5,0-0.9,0-1.3,0
		c-0.1,0-0.1-0.1-0.1-0.2c0-0.1,0-0.2,0.1-0.2c0.5-0.1,0.8-0.1,1-0.2c0.2-0.1,0.4-0.2,0.5-0.4c0.1-0.2,0.1-0.4,0.1-0.8v-7.8
		c0-0.4,0-0.6-0.1-0.8c-0.1-0.2-0.3-0.3-0.5-0.4c-0.2-0.1-0.6-0.2-1.1-0.2c-0.1,0-0.1-0.1-0.1-0.2c0-0.2,0-0.2,0.1-0.2
		c1.4,0.1,2.8,0.1,4.2,0.1c1.4,0,2.7,0,4.1-0.1C103.6,114.6,103.8,115.4,104.1,116.1z"/>
	<path fill="#292B77" d="M114.9,122.3c-0.4,0.9-0.8,1.9-1.1,2.7c-2.1-0.1-3.5-0.1-4.4-0.1c-0.9,0-2.3,0-4.4,0.1
		c-0.1,0-0.1-0.1-0.1-0.2c0-0.1,0-0.2,0.1-0.2c0.5-0.1,0.8-0.1,1-0.2c0.2-0.1,0.4-0.2,0.5-0.4c0.1-0.2,0.1-0.4,0.1-0.8v-7.8
		c0-0.4,0-0.6-0.1-0.8c-0.1-0.2-0.3-0.3-0.5-0.4c-0.2-0.1-0.6-0.2-1.1-0.2c-0.1,0-0.1-0.1-0.1-0.2c0-0.2,0-0.2,0.1-0.2
		c1.4,0.1,2.8,0.1,4.2,0.1c1.5,0,2.9,0,4.3-0.1c0.1,0.9,0.3,1.7,0.6,2.5c0,0.1-0.1,0.2-0.3,0.2c-0.1,0-0.2,0-0.2-0.1
		c-0.4-1.3-1.3-1.9-2.6-1.9h-1.7c-0.6,0-1,0.3-1,1v3.7h2.1c0.6,0,0.9-0.1,1.1-0.4c0.2-0.3,0.3-0.7,0.4-1.3c0-0.1,0.1-0.1,0.2-0.1
		s0.2,0,0.2,0.1c0,0.3,0,0.6,0,1c0,0.4,0,0.7,0,1c0,0.3,0,0.6,0,1c0,0.4,0,0.8,0,1.1c0,0.1-0.1,0.1-0.2,0.1s-0.2,0-0.2-0.1
		c-0.1-0.7-0.2-1.1-0.4-1.4c-0.2-0.3-0.6-0.4-1.1-0.4h-2.1v4.1c0,0.6,0.3,1,1,1h1.8c0.7,0,1.3-0.2,1.9-0.6c0.6-0.4,1.1-1,1.4-1.6
		c0,0,0.1-0.1,0.1-0.1c0.1,0,0.1,0,0.2,0.1C114.9,122.2,114.9,122.3,114.9,122.3z"/>
	<path fill="#292B77" d="M127,124.8c0,0.2,0,0.2-0.1,0.2c-0.2,0-0.5,0-1-0.1c-0.3,0-0.6,0-0.7,0c-0.2,0-0.4,0-0.7,0
		c-0.3,0-0.6,0-0.7,0l-2.5-4.1c-0.4-0.6-0.6-0.9-0.9-1.1c-0.2-0.2-0.7-0.2-1.3-0.2v3.5c0,0.4,0,0.6,0.1,0.8c0.1,0.2,0.3,0.3,0.5,0.4
		c0.2,0.1,0.6,0.2,1,0.2c0.1,0,0.1,0.1,0.1,0.2c0,0.2,0,0.2-0.1,0.2c-0.4,0-0.8,0-1.3,0c-0.5,0-0.9,0-1.2,0s-0.7,0-1.2,0
		c-0.5,0-0.9,0-1.3,0c-0.1,0-0.1-0.1-0.1-0.2c0-0.1,0-0.2,0.1-0.2c0.5-0.1,0.8-0.1,1-0.2c0.2-0.1,0.4-0.2,0.5-0.4
		c0.1-0.2,0.1-0.4,0.1-0.8v-7.8c0-0.4,0-0.6-0.1-0.8c-0.1-0.2-0.3-0.3-0.5-0.4c-0.2-0.1-0.6-0.2-1.1-0.2c-0.1,0-0.1-0.1-0.1-0.2
		c0-0.2,0-0.2,0.1-0.2c0.4,0,0.8,0,1.3,0c0.5,0,0.9,0,1.2,0s0.7,0,1.2,0c0.5,0,0.9,0,1.3,0c1.2,0,2.2,0.3,2.8,0.8
		c0.7,0.5,1,1.2,1,2.2c0,0.6-0.2,1.1-0.7,1.6s-1,0.9-1.8,1.2l2.5,4.1c0.2,0.4,0.5,0.6,0.9,0.8s0.8,0.3,1.3,0.4
		C127,124.6,127,124.7,127,124.8z M122.8,116.6c0-1.6-0.7-2.4-2.1-2.4c-0.5,0-0.8,0-1,0.1c-0.2,0.1-0.4,0.2-0.5,0.4
		s-0.1,0.4-0.1,0.8v3.7c0.3,0,0.7,0.1,1.2,0.1c0.9,0,1.5-0.2,1.9-0.6C122.6,118.2,122.8,117.5,122.8,116.6z"/>
	<path fill="#292B77" d="M142.1,122c-0.2,0.9-0.4,1.8-0.6,2.8c-0.3,0-0.9,0.1-1.7,0.2c-1.1,0.2-1.8,0.3-2.3,0.3
		c-1.3,0-2.3-0.2-3.3-0.7s-1.7-1.2-2.2-2.1c-0.5-0.9-0.8-1.9-0.8-3.1c0-1.1,0.3-2.1,0.8-3.1c0.6-0.9,1.3-1.7,2.3-2.2
		s2.1-0.8,3.3-0.8c0.5,0,1.2,0.1,2.1,0.2c0.7,0.1,1.2,0.1,1.5,0.1c0.1,0.8,0.2,1.7,0.4,2.8c0,0.1-0.1,0.1-0.3,0.1
		c-0.1,0-0.2,0-0.2-0.1c-0.2-0.7-0.6-1.4-1.3-1.8s-1.4-0.7-2.3-0.7c-1.3,0-2.4,0.5-3.2,1.6c-0.9,1.1-1.3,2.4-1.3,3.9
		c0,1.5,0.4,2.8,1.3,3.8c0.9,1.1,1.9,1.6,3.2,1.6c2,0,3.3-0.9,4.2-2.8c0-0.1,0.1-0.1,0.2-0.1C142,121.9,142.1,121.9,142.1,122z"/>
	<path fill="#292B77" d="M155.4,119.4c0,1.7-0.6,3.2-1.7,4.3c-1.1,1.1-2.6,1.7-4.4,1.7c-1.8,0-3.3-0.6-4.4-1.7
		c-1.1-1.1-1.7-2.5-1.7-4.3c0-1.7,0.6-3.2,1.7-4.3c1.1-1.1,2.6-1.7,4.4-1.7c1.8,0,3.3,0.6,4.4,1.7
		C154.9,116.2,155.4,117.6,155.4,119.4z M153.6,119.4c0-1.6-0.4-2.9-1.2-4s-1.8-1.5-3.1-1.5c-1.3,0-2.3,0.5-3.1,1.5s-1.2,2.3-1.2,4
		c0,1.6,0.4,2.9,1.2,3.9c0.8,1,1.8,1.5,3.1,1.5c1.3,0,2.3-0.5,3.1-1.5S153.6,121,153.6,119.4z"/>
	<path fill="#292B77" d="M168.8,113.8c0,0.2,0,0.2-0.1,0.2c-0.7,0.1-1.2,0.2-1.4,0.4c-0.2,0.2-0.4,0.5-0.4,1v5.2
		c0,1.5-0.4,2.6-1.1,3.4c-0.7,0.8-1.7,1.2-3,1.2c-1.5,0-2.6-0.4-3.4-1.2s-1.2-1.9-1.2-3.2v-5.4c0-0.4,0-0.6-0.1-0.8
		c-0.1-0.2-0.3-0.3-0.5-0.4c-0.2-0.1-0.6-0.2-1.1-0.2c-0.1,0-0.1-0.1-0.1-0.2c0-0.2,0-0.2,0.1-0.2c0.4,0,0.8,0,1.3,0
		c0.5,0,0.9,0,1.2,0s0.7,0,1.2,0c0.5,0,0.9,0,1.3,0c0.1,0,0.1,0.1,0.1,0.2c0,0.2,0,0.2-0.1,0.2c-0.5,0.1-0.8,0.1-1.1,0.2
		c-0.2,0.1-0.4,0.2-0.5,0.4c-0.1,0.2-0.1,0.4-0.1,0.8v5.2c0,1.4,0.3,2.3,0.8,3c0.5,0.6,1.3,0.9,2.5,0.9c2.2,0,3.3-1.4,3.3-4.1v-5
		c0-0.5-0.1-0.9-0.4-1s-0.7-0.3-1.4-0.4c-0.1,0-0.1-0.1-0.1-0.2c0-0.2,0-0.2,0.1-0.2c0.3,0,0.6,0,1,0c0.4,0,0.8,0,1,0s0.6,0,1,0
		c0.4,0,0.7,0,1,0C168.8,113.6,168.8,113.7,168.8,113.8z"/>
	<path fill="#292B77" d="M183.2,113.8c0,0.1,0,0.2-0.1,0.2c-0.7,0.1-1.2,0.2-1.4,0.4c-0.3,0.2-0.4,0.5-0.4,1l-0.2,9.7
		c0,0.1-0.1,0.2-0.2,0.2c-0.1,0-0.2,0-0.3-0.1l-8.5-9.6l-0.1,7.6c0,0,0,0.1,0,0.1c0,0.4,0.1,0.7,0.4,0.9s0.7,0.3,1.4,0.4
		c0.1,0,0.1,0.1,0.1,0.2c0,0.2,0,0.2-0.1,0.2c-0.3,0-0.7,0-1.2,0c-0.5,0-0.8,0-1.1,0c-0.3,0-0.6,0-1.1,0c-0.5,0-0.8,0-1,0
		c-0.1,0-0.1-0.1-0.1-0.2c0-0.1,0-0.2,0.1-0.2c0.7-0.1,1.1-0.2,1.4-0.4c0.3-0.2,0.4-0.5,0.4-1l0.3-7.8v-0.1c0-0.4-0.1-0.8-0.4-0.9
		c-0.3-0.2-0.7-0.3-1.4-0.4c-0.1,0-0.1-0.1-0.1-0.2c0-0.2,0-0.2,0.1-0.2c0.2,0,0.5,0,0.8,0c0.3,0,0.5,0,0.7,0c0.2,0,0.4,0,0.7,0
		c0.3,0,0.5,0,0.7,0l7.9,8.9v-7c0-0.5-0.1-0.8-0.4-1c-0.3-0.2-0.8-0.3-1.5-0.4c-0.1,0-0.1-0.1-0.1-0.2c0-0.2,0-0.2,0.1-0.2
		c0.3,0,0.7,0,1.2,0c0.5,0,0.8,0,1.1,0c0.3,0,0.6,0,1.1,0c0.5,0,0.8,0,1,0C183.1,113.6,183.2,113.7,183.2,113.8z"/>
	<path fill="#292B77" d="M191,121.8c0,1.1-0.3,2-1,2.6c-0.6,0.6-1.5,1-2.6,1c-0.5,0-1.1-0.1-1.8-0.3c-0.6-0.2-1.1-0.2-1.5-0.2
		c0-0.9-0.1-1.9-0.2-2.8c0-0.1,0.1-0.1,0.2-0.1c0.1,0,0.2,0,0.2,0.1c0.3,1,0.7,1.7,1.1,2.2c0.5,0.4,1.1,0.6,1.9,0.6
		c0.7,0,1.2-0.2,1.5-0.6c0.4-0.4,0.5-0.9,0.5-1.6c0-0.4-0.2-0.9-0.5-1.2c-0.3-0.4-1-0.9-2-1.5c-1.2-0.7-2-1.3-2.3-1.7
		c-0.4-0.5-0.6-1-0.6-1.6c0-0.9,0.3-1.7,1-2.3c0.7-0.6,1.5-0.9,2.5-0.9c0.4,0,0.8,0.1,1.3,0.2c0.5,0.1,0.9,0.1,1.2,0.1
		c0.1,1,0.2,1.8,0.3,2.6c0,0.1-0.1,0.1-0.2,0.1c-0.2,0-0.2,0-0.3-0.1c-0.2-0.8-0.5-1.4-0.8-1.8c-0.4-0.4-0.9-0.5-1.5-0.5
		c-0.6,0-1.1,0.2-1.5,0.5s-0.5,0.9-0.5,1.5c0,0.4,0.2,0.8,0.5,1.1c0.3,0.4,1,0.8,2,1.4c1.2,0.7,2,1.3,2.4,1.8
		C190.8,120.7,191,121.2,191,121.8z"/>
	<path fill="#292B77" d="M202.1,122.3c-0.4,0.9-0.8,1.9-1.1,2.7c-2.1-0.1-3.5-0.1-4.4-0.1c-0.9,0-2.3,0-4.4,0.1
		c-0.1,0-0.1-0.1-0.1-0.2c0-0.1,0-0.2,0.1-0.2c0.5-0.1,0.8-0.1,1-0.2c0.2-0.1,0.4-0.2,0.5-0.4c0.1-0.2,0.1-0.4,0.1-0.8v-7.8
		c0-0.4,0-0.6-0.1-0.8s-0.3-0.3-0.5-0.4c-0.2-0.1-0.6-0.2-1.1-0.2c-0.1,0-0.1-0.1-0.1-0.2c0-0.2,0-0.2,0.1-0.2
		c1.4,0.1,2.8,0.1,4.2,0.1c1.5,0,2.9,0,4.3-0.1c0.1,0.9,0.3,1.7,0.6,2.5c0,0.1-0.1,0.2-0.3,0.2c-0.1,0-0.2,0-0.2-0.1
		c-0.4-1.3-1.3-1.9-2.6-1.9h-1.7c-0.6,0-1,0.3-1,1v3.7h2.1c0.6,0,0.9-0.1,1.1-0.4c0.2-0.3,0.3-0.7,0.4-1.3c0-0.1,0.1-0.1,0.2-0.1
		c0.2,0,0.2,0,0.2,0.1c0,0.3,0,0.6,0,1c0,0.4,0,0.7,0,1c0,0.3,0,0.6,0,1c0,0.4,0,0.8,0,1.1c0,0.1-0.1,0.1-0.2,0.1
		c-0.2,0-0.2,0-0.2-0.1c-0.1-0.7-0.2-1.1-0.4-1.4s-0.6-0.4-1.1-0.4h-2.1v4.1c0,0.6,0.3,1,1,1h1.8c0.7,0,1.3-0.2,1.9-0.6
		c0.6-0.4,1.1-1,1.4-1.6c0,0,0.1-0.1,0.1-0.1c0.1,0,0.1,0,0.2,0.1C202.1,122.2,202.1,122.3,202.1,122.3z"/>
	<path fill="#292B77" d="M212.4,122c-0.3,1-0.5,2-0.6,3c-2.1-0.1-3.6-0.1-4.5-0.1c-0.9,0-2.4,0-4.4,0.1c-0.1,0-0.1-0.1-0.1-0.2
		c0-0.1,0-0.2,0.1-0.2c0.7-0.1,1.1-0.2,1.4-0.4c0.2-0.2,0.4-0.5,0.4-1v-7.8c0-0.4,0-0.7-0.1-0.8c-0.1-0.2-0.3-0.3-0.5-0.4
		c-0.2-0.1-0.6-0.2-1.1-0.2c-0.1,0-0.1-0.1-0.1-0.2c0-0.2,0-0.2,0.1-0.2c0.4,0,0.8,0,1.3,0c0.5,0,0.9,0,1.2,0s0.7,0,1.2,0
		c0.5,0,0.9,0,1.3,0c0.1,0,0.1,0.1,0.1,0.2c0,0.2,0,0.2-0.1,0.2c-0.5,0.1-0.8,0.1-1.1,0.2c-0.2,0.1-0.4,0.2-0.5,0.4
		c-0.1,0.2-0.1,0.4-0.1,0.8v8c0,0.6,0.3,1,1,1h1.6c0.7,0,1.2-0.2,1.7-0.5c0.5-0.4,0.9-1,1.4-2c0,0,0.1-0.1,0.2-0.1
		c0.1,0,0.1,0,0.2,0.1S212.4,122,212.4,122z"/>
	<path fill="#292B77" d="M225.3,119.4c0,1.7-0.6,3.2-1.7,4.3s-2.6,1.7-4.4,1.7c-1.8,0-3.3-0.6-4.4-1.7s-1.7-2.5-1.7-4.3
		c0-1.7,0.6-3.2,1.7-4.3c1.1-1.1,2.6-1.7,4.4-1.7c1.8,0,3.3,0.6,4.4,1.7C224.8,116.2,225.3,117.6,225.3,119.4z M223.5,119.4
		c0-1.6-0.4-2.9-1.2-4s-1.8-1.5-3.1-1.5c-1.3,0-2.3,0.5-3.1,1.5s-1.2,2.3-1.2,4c0,1.6,0.4,2.9,1.2,3.9c0.8,1,1.8,1.5,3.1,1.5
		c1.3,0,2.3-0.5,3.1-1.5S223.5,121,223.5,119.4z"/>
	<path fill="#292B77" d="M238,124.8c0,0.2,0,0.2-0.1,0.2c-0.2,0-0.5,0-1-0.1c-0.3,0-0.6,0-0.7,0c-0.2,0-0.4,0-0.7,0
		c-0.3,0-0.6,0-0.8,0l-2.5-4.1c-0.4-0.6-0.6-0.9-0.9-1.1c-0.2-0.2-0.7-0.2-1.3-0.2v3.5c0,0.4,0,0.6,0.1,0.8c0.1,0.2,0.3,0.3,0.5,0.4
		c0.2,0.1,0.6,0.2,1.1,0.2c0.1,0,0.1,0.1,0.1,0.2c0,0.2,0,0.2-0.1,0.2c-0.4,0-0.8,0-1.3,0c-0.5,0-0.9,0-1.2,0s-0.7,0-1.2,0
		c-0.5,0-0.9,0-1.3,0c-0.1,0-0.1-0.1-0.1-0.2c0-0.1,0-0.2,0.1-0.2c0.5-0.1,0.8-0.1,1-0.2c0.2-0.1,0.4-0.2,0.5-0.4
		c0.1-0.2,0.1-0.4,0.1-0.8v-7.8c0-0.4,0-0.6-0.1-0.8s-0.3-0.3-0.5-0.4c-0.2-0.1-0.6-0.2-1.1-0.2c-0.1,0-0.1-0.1-0.1-0.2
		c0-0.2,0-0.2,0.1-0.2c0.4,0,0.8,0,1.3,0c0.5,0,0.9,0,1.2,0s0.7,0,1.2,0c0.5,0,0.9,0,1.3,0c1.2,0,2.2,0.3,2.8,0.8
		c0.7,0.5,1,1.2,1,2.2c0,0.6-0.2,1.1-0.7,1.6s-1,0.9-1.8,1.2l2.5,4.1c0.2,0.4,0.5,0.6,0.8,0.8s0.8,0.3,1.3,0.4
		C238,124.6,238,124.7,238,124.8z M233.8,116.6c0-1.6-0.7-2.4-2.1-2.4c-0.5,0-0.8,0-1.1,0.1c-0.2,0.1-0.4,0.2-0.5,0.4
		c-0.1,0.2-0.1,0.4-0.1,0.8v3.7c0.3,0,0.7,0.1,1.2,0.1c0.9,0,1.5-0.2,1.9-0.6C233.6,118.2,233.8,117.5,233.8,116.6z"/>
	<path fill="#292B77" d="M259.1,113.8c0,0.1,0,0.1-0.1,0.2c0,0.1-0.1,0.1-0.1,0.1c-0.4,0-0.7,0.2-1,0.4c-0.3,0.2-0.5,0.6-0.8,1.3
		l-4.2,9.5c0,0.1-0.1,0.1-0.2,0.1c-0.1,0-0.2,0-0.2-0.1l-2.4-4.9l-2.7,4.9c-0.1,0.1-0.1,0.1-0.2,0.1c-0.1,0-0.2,0-0.2-0.1l-4.1-9.5
		c-0.3-0.6-0.5-1-0.8-1.2s-0.7-0.4-1.2-0.4c0,0-0.1,0-0.1-0.1s-0.1-0.1-0.1-0.2c0-0.2,0-0.2,0.1-0.2c0.4,0,0.8,0,1.2,0
		c0.4,0,0.7,0,1.1,0c0.3,0,0.7,0,1.2,0c0.5,0,0.9,0,1.3,0c0.1,0,0.1,0.1,0.1,0.2c0,0.2,0,0.2-0.1,0.2c-0.4,0-0.7,0.1-0.9,0.3
		c-0.2,0.2-0.3,0.4-0.3,0.6c0,0.1,0,0.3,0.1,0.5l3.4,7.7l2-3.7l-1.8-3.8c-0.3-0.7-0.6-1.1-0.8-1.3c-0.2-0.2-0.5-0.3-0.9-0.4
		c0,0-0.1,0-0.1-0.1s-0.1-0.1-0.1-0.2c0-0.2,0-0.2,0.1-0.2c0.4,0,0.7,0,1,0c0.3,0,0.6,0,0.9,0c0.3,0,0.7,0,1,0c0.4,0,0.8,0,1.1,0
		c0.1,0,0.1,0.1,0.1,0.2c0,0.2,0,0.2-0.1,0.2c-0.7,0-1.1,0.3-1.1,0.6c0,0.2,0.1,0.4,0.3,0.8l1.2,2.4l1.2-2.2
		c0.2-0.3,0.2-0.6,0.2-0.8c0-0.5-0.4-0.8-1.1-0.8c-0.1,0-0.1-0.1-0.1-0.2c0-0.1,0-0.1,0-0.2c0,0,0.1-0.1,0.1-0.1c0.3,0,0.6,0,1,0
		c0.4,0,0.7,0,0.9,0c0.2,0,0.4,0,0.7,0c0.4,0,0.8-0.1,1-0.1c0.1,0,0.1,0.1,0.1,0.2c0,0.2-0.1,0.3-0.2,0.3c-0.4,0-0.8,0.2-1,0.4
		c-0.3,0.2-0.6,0.6-1,1.3l-1.6,2.9l2.1,4.4l3.2-7.4c0.1-0.3,0.2-0.5,0.2-0.7c0-0.5-0.4-0.8-1.1-0.9c-0.1,0-0.1-0.1-0.1-0.2
		c0-0.2,0-0.2,0.1-0.2c0.3,0,0.6,0,1,0c0.3,0,0.6,0,0.9,0c0.2,0,0.5,0,0.8,0c0.3,0,0.6,0,0.9,0C259.1,113.6,259.1,113.7,259.1,113.8
		z"/>
	<path fill="#292B77" d="M269.7,122.3c-0.4,0.9-0.8,1.9-1.1,2.7c-2.1-0.1-3.5-0.1-4.4-0.1c-0.9,0-2.3,0-4.4,0.1
		c-0.1,0-0.1-0.1-0.1-0.2c0-0.1,0-0.2,0.1-0.2c0.5-0.1,0.8-0.1,1-0.2c0.2-0.1,0.4-0.2,0.5-0.4c0.1-0.2,0.1-0.4,0.1-0.8v-7.8
		c0-0.4,0-0.6-0.1-0.8s-0.3-0.3-0.5-0.4c-0.2-0.1-0.6-0.2-1.1-0.2c-0.1,0-0.1-0.1-0.1-0.2c0-0.2,0-0.2,0.1-0.2
		c1.4,0.1,2.8,0.1,4.2,0.1c1.5,0,2.9,0,4.3-0.1c0.1,0.9,0.3,1.7,0.6,2.5c0,0.1-0.1,0.2-0.3,0.2c-0.1,0-0.2,0-0.2-0.1
		c-0.4-1.3-1.3-1.9-2.6-1.9h-1.7c-0.6,0-1,0.3-1,1v3.7h2.1c0.6,0,0.9-0.1,1.1-0.4c0.2-0.3,0.3-0.7,0.4-1.3c0-0.1,0.1-0.1,0.2-0.1
		c0.2,0,0.2,0,0.2,0.1c0,0.3,0,0.6,0,1c0,0.4,0,0.7,0,1c0,0.3,0,0.6,0,1c0,0.4,0,0.8,0,1.1c0,0.1-0.1,0.1-0.2,0.1
		c-0.2,0-0.2,0-0.2-0.1c-0.1-0.7-0.2-1.1-0.4-1.4s-0.6-0.4-1.1-0.4h-2.1v4.1c0,0.6,0.3,1,1,1h1.8c0.7,0,1.3-0.2,1.9-0.6
		c0.6-0.4,1.1-1,1.4-1.6c0,0,0.1-0.1,0.1-0.1c0.1,0,0.1,0,0.2,0.1C269.7,122.2,269.7,122.3,269.7,122.3z"/>
	<path fill="#292B77" d="M280,121.7c0,1-0.3,1.8-1,2.4s-1.6,0.9-2.7,0.9c-0.4,0-0.9,0-1.6,0c-0.6,0-1.1,0-1.5,0s-0.8,0-1.4,0
		c-0.6,0-1.1,0-1.4,0c-0.1,0-0.1-0.1-0.1-0.2c0-0.1,0-0.2,0.1-0.2c0.7-0.1,1.1-0.2,1.4-0.4c0.2-0.2,0.4-0.5,0.4-1v-7.8
		c0-0.4,0-0.7-0.1-0.8c-0.1-0.2-0.3-0.3-0.5-0.4c-0.2-0.1-0.6-0.2-1.1-0.2c-0.1,0-0.1-0.1-0.1-0.2c0-0.2,0-0.2,0.1-0.2
		c0.4,0,0.8,0,1.4,0c0.5,0,0.9,0,1.3,0c0.3,0,0.8,0,1.3,0c0.6,0,1,0,1.4,0c1,0,1.9,0.2,2.5,0.7c0.6,0.5,0.9,1.1,0.9,1.9
		c0,0.6-0.2,1.1-0.7,1.6c-0.5,0.5-1,0.8-1.7,1c1,0.2,1.7,0.5,2.3,1.1C279.7,120.4,280,121,280,121.7z M277.4,116.3
		c0-0.7-0.2-1.3-0.5-1.6s-0.9-0.5-1.7-0.5h-0.3c-0.7,0-1,0.3-1,0.9v3.6h1.2c0.8,0,1.4-0.2,1.8-0.6
		C277.2,117.7,277.4,117.1,277.4,116.3z M278.2,121.7c0-0.8-0.2-1.4-0.7-1.9c-0.5-0.5-1.1-0.7-1.9-0.7h-1.8v4.1c0,0.5,0.1,0.8,0.4,1
		c0.3,0.2,0.8,0.3,1.5,0.3c0.7,0,1.3-0.3,1.8-0.8C278,123.2,278.2,122.5,278.2,121.7z"/>
	<path fill="#292B77" d="M288.3,121.8c0,1.1-0.3,2-1,2.6c-0.6,0.6-1.5,1-2.6,1c-0.5,0-1.1-0.1-1.8-0.3c-0.6-0.2-1.1-0.2-1.5-0.2
		c0-0.9-0.1-1.9-0.2-2.8c0-0.1,0.1-0.1,0.2-0.1c0.1,0,0.2,0,0.2,0.1c0.3,1,0.7,1.7,1.1,2.2c0.5,0.4,1.1,0.6,1.9,0.6
		c0.7,0,1.2-0.2,1.5-0.6c0.4-0.4,0.5-0.9,0.5-1.6c0-0.4-0.2-0.9-0.5-1.2c-0.3-0.4-1-0.9-2-1.5c-1.2-0.7-2-1.3-2.3-1.7
		c-0.4-0.5-0.6-1-0.6-1.6c0-0.9,0.3-1.7,1-2.3c0.7-0.6,1.5-0.9,2.5-0.9c0.4,0,0.8,0.1,1.3,0.2c0.5,0.1,0.9,0.1,1.2,0.1
		c0.1,1,0.2,1.8,0.3,2.6c0,0.1-0.1,0.1-0.2,0.1c-0.2,0-0.2,0-0.3-0.1c-0.2-0.8-0.5-1.4-0.8-1.8c-0.4-0.4-0.9-0.5-1.5-0.5
		c-0.6,0-1.1,0.2-1.5,0.5s-0.5,0.9-0.5,1.5c0,0.4,0.2,0.8,0.5,1.1c0.3,0.4,1,0.8,2,1.4c1.2,0.7,2,1.3,2.4,1.8
		C288.1,120.7,288.3,121.2,288.3,121.8z"/>
	<path fill="#292B77" d="M295.2,124.8c0,0.2,0,0.2-0.1,0.2c-0.4,0-0.8,0-1.3,0c-0.5,0-0.9,0-1.2,0s-0.7,0-1.2,0c-0.5,0-1,0-1.3,0
		c-0.1,0-0.1-0.1-0.1-0.2c0-0.1,0-0.2,0.1-0.2c0.7-0.1,1.1-0.2,1.4-0.4c0.2-0.2,0.4-0.5,0.4-1v-7.8c0-0.4,0-0.7-0.1-0.8
		c-0.1-0.2-0.3-0.3-0.5-0.4c-0.2-0.1-0.6-0.2-1.1-0.2c-0.1,0-0.1-0.1-0.1-0.2c0-0.2,0-0.2,0.1-0.2c0.4,0,0.8,0,1.3,0
		c0.5,0,0.9,0,1.2,0s0.7,0,1.2,0c0.5,0,0.9,0,1.3,0c0.1,0,0.1,0.1,0.1,0.2c0,0.2,0,0.2-0.1,0.2c-0.5,0.1-0.8,0.1-1.1,0.2
		c-0.2,0.1-0.4,0.2-0.5,0.4c-0.1,0.2-0.1,0.4-0.1,0.8v7.8c0,0.4,0,0.6,0.1,0.8c0.1,0.2,0.3,0.3,0.5,0.4c0.2,0.1,0.6,0.2,1.1,0.2
		C295.2,124.6,295.2,124.7,295.2,124.8z"/>
	<path fill="#292B77" d="M307.9,116.3c0,0.1-0.1,0.2-0.3,0.2c-0.1,0-0.1,0-0.2-0.1c-0.2-0.8-0.6-1.3-1-1.6c-0.4-0.3-1.1-0.5-2-0.5
		h-0.8c-0.3,0-0.5,0-0.6,0.1s-0.1,0.3-0.1,0.5v8.4c0,0.4,0,0.6,0.1,0.8c0.1,0.2,0.3,0.3,0.5,0.4c0.2,0.1,0.6,0.2,1,0.2
		c0.1,0,0.1,0.1,0.1,0.2c0,0.2,0,0.2-0.1,0.2c-0.4,0-0.8,0-1.3,0c-0.5,0-0.9,0-1.2,0c-0.3,0-0.8,0-1.2,0c-0.5,0-1,0-1.3,0
		c-0.1,0-0.1-0.1-0.1-0.2c0-0.1,0-0.2,0.1-0.2c0.7-0.1,1.1-0.2,1.4-0.4c0.2-0.2,0.4-0.5,0.4-1v-8.4c0-0.2,0-0.4-0.1-0.5
		s-0.3-0.1-0.6-0.1H300c-0.8,0-1.5,0.2-2.1,0.6s-1,0.9-1.2,1.5c0,0.1-0.1,0.1-0.2,0.1c-0.2,0-0.3-0.1-0.3-0.2
		c0.3-0.8,0.6-1.8,0.9-2.8c0.7,0.2,2.5,0.2,5.1,0.2c2.7,0,4.5-0.1,5.2-0.2C307.5,114.2,307.6,115.1,307.9,116.3z"/>
	<path fill="#292B77" d="M318.4,122.3c-0.4,0.9-0.8,1.9-1.1,2.7c-2.1-0.1-3.5-0.1-4.4-0.1c-0.9,0-2.3,0-4.4,0.1
		c-0.1,0-0.1-0.1-0.1-0.2c0-0.1,0-0.2,0.1-0.2c0.5-0.1,0.8-0.1,1-0.2c0.2-0.1,0.4-0.2,0.5-0.4c0.1-0.2,0.1-0.4,0.1-0.8v-7.8
		c0-0.4,0-0.6-0.1-0.8s-0.3-0.3-0.5-0.4c-0.2-0.1-0.6-0.2-1.1-0.2c-0.1,0-0.1-0.1-0.1-0.2c0-0.2,0-0.2,0.1-0.2
		c1.4,0.1,2.8,0.1,4.2,0.1c1.5,0,2.9,0,4.3-0.1c0.1,0.9,0.3,1.7,0.6,2.5c0,0.1-0.1,0.2-0.3,0.2c-0.1,0-0.2,0-0.2-0.1
		c-0.4-1.3-1.3-1.9-2.6-1.9h-1.7c-0.6,0-1,0.3-1,1v3.7h2.1c0.6,0,0.9-0.1,1.1-0.4c0.2-0.3,0.3-0.7,0.4-1.3c0-0.1,0.1-0.1,0.2-0.1
		c0.2,0,0.2,0,0.2,0.1c0,0.3,0,0.6,0,1c0,0.4,0,0.7,0,1c0,0.3,0,0.6,0,1c0,0.4,0,0.8,0,1.1c0,0.1-0.1,0.1-0.2,0.1
		c-0.2,0-0.2,0-0.2-0.1c-0.1-0.7-0.2-1.1-0.4-1.4s-0.6-0.4-1.1-0.4h-2.1v4.1c0,0.6,0.3,1,1,1h1.8c0.7,0,1.3-0.2,1.9-0.6
		c0.6-0.4,1.1-1,1.4-1.6c0,0,0.1-0.1,0.1-0.1c0.1,0,0.1,0,0.2,0.1C318.4,122.2,318.4,122.3,318.4,122.3z"/>
</g>
</svg>
